<?xml version="1.0" standalone="no"?><!DOCTYPE svg PUBLIC "-//W3C//DTD SVG 1.1//EN" "http://www.w3.org/Graphics/SVG/1.1/DTD/svg11.dtd"><svg t="1738995589458" class="icon" viewBox="0 0 1024 1024" version="1.1" xmlns="http://www.w3.org/2000/svg" p-id="3683" xmlns:xlink="http://www.w3.org/1999/xlink" width="200" height="200"><path d="M750.933333 651.946667v-68.266667c0-90.453333-136.533333-90.453333-136.533333 0v-68.266667c0-90.453333-136.533333-90.453333-136.533333 0v-273.066666c0-90.453333-136.533333-90.453333-136.533334 0v529.066666C278.186667 708.266667 216.746667 622.933333 157.013333 682.666667c-27.306667 27.306667-27.306667 69.973333 0 97.28L349.866667 972.8c15.36 15.36 34.133333 20.48 54.613333 18.773333 20.48 1.706667 394.24 0 414.72 0 37.546667 0 68.266667-29.013333 68.266667-66.56v-273.066666c0-90.453333-136.533333-90.453333-136.533334 0z" fill="#F1E9DA" p-id="3684"></path><path d="M819.2 925.013333c-273.066667 0-433.493333 17.066667-469.333333-20.48L157.013333 711.68c-3.413333-3.413333-6.826667-8.533333-8.533333-13.653333-15.36 25.6-13.653333 59.733333 8.533333 81.92L349.866667 972.8c15.36 15.36 34.133333 20.48 54.613333 18.773333 20.48 1.706667 394.24 0 414.72 0 37.546667 0 68.266667-29.013333 68.266667-66.56v-68.266666c0 37.546667-30.72 68.266667-68.266667 68.266666z" fill="#E5D5B6" p-id="3685"></path><path d="M397.653333 925.013333l-100.693333-100.693333c44.373333 37.546667 112.64 5.12 112.64-52.906667v-256c0 90.453333 136.533333 90.453333 136.533333 0v68.266667c0 90.453333 136.533333 90.453333 136.533334 0v68.266667c0 90.453333 136.533333 90.453333 136.533333 0v273.066666H397.653333z" fill="#FFFFFF" p-id="3686" data-spm-anchor-id="a313x.search_index.0.i2.a9443a81qPvWbq" class="selected"></path><path d="M517.12 1008.64h-112.64c-27.306667 1.706667-49.493333-6.826667-66.56-23.893333L145.066667 791.893333c-17.066667-17.066667-25.6-37.546667-25.6-61.44S128 687.786667 145.066667 670.72s35.84-25.6 56.32-25.6c44.373333 0 81.92 40.96 122.88 83.626667V242.346667c0-56.32 42.666667-85.333333 85.333333-85.333334s85.333333 29.013333 85.333333 85.333334v203.093333c49.493333-34.133333 136.533333-10.24 136.533334 68.266667 49.493333-34.133333 136.533333-10.24 136.533333 68.266666 49.493333-34.133333 136.533333-10.24 136.533333 69.973334v273.066666c0 46.08-37.546667 83.626667-85.333333 83.626667H517.12z m-112.64-34.133333c17.066667 1.706667 288.426667 0 377.173333 0h37.546667c29.013333 0 51.2-22.186667 51.2-49.493334v-273.066666c0-35.84-25.6-51.2-51.2-51.2s-51.2 15.36-51.2 51.2h-34.133333v-68.266667c0-35.84-25.6-51.2-51.2-51.2s-51.2 15.36-51.2 51.2h-34.133334v-68.266667c0-35.84-25.6-51.2-51.2-51.2s-51.2 15.36-51.2 51.2h-34.133333v-273.066666c0-35.84-25.6-51.2-51.2-51.2s-51.2 15.36-51.2 51.2v570.026666l-29.013333-29.013333c-8.533333-8.533333-18.773333-18.773333-27.306667-29.013333C266.24 716.8 230.4 679.253333 201.386667 679.253333c-10.24 0-20.48 5.12-30.72 15.36-10.24 10.24-15.36 22.186667-15.36 35.84s5.12 27.306667 15.36 35.84l192.853333 192.853334c8.533333 11.946667 22.186667 17.066667 40.96 15.36z" p-id="3687"></path><path d="M609.28 215.04h-64.853333c-10.24 0-17.066667-6.826667-17.066667-17.066667s6.826667-17.066667 17.066667-17.066666h64.853333c10.24 0 17.066667 6.826667 17.066667 17.066666 0 8.533333-8.533333 17.066667-17.066667 17.066667zM407.893333 110.933333c-10.24 0-17.066667-6.826667-17.066666-17.066666V29.013333c0-10.24 6.826667-17.066667 17.066666-17.066666s17.066667 6.826667 17.066667 17.066666v64.853334c0 10.24-8.533333 17.066667-17.066667 17.066666zM269.653333 215.04H206.506667c-10.24 0-17.066667-6.826667-17.066667-17.066667s6.826667-17.066667 17.066667-17.066666h64.853333c10.24 0 17.066667 6.826667 17.066667 17.066666-1.706667 8.533333-8.533333 17.066667-18.773334 17.066667zM513.706667 141.653333c-5.12 0-8.533333-1.706667-11.946667-5.12-6.826667-6.826667-6.826667-17.066667 0-23.893333l42.666667-42.666667c6.826667-6.826667 17.066667-6.826667 23.893333 0 6.826667 6.826667 6.826667 17.066667 0 23.893334L525.653333 136.533333c-3.413333 3.413333-6.826667 5.12-11.946666 5.12zM300.373333 141.653333c-5.12 0-8.533333-1.706667-11.946666-5.12L245.76 93.866667c-6.826667-6.826667-6.826667-17.066667 0-23.893334 6.826667-6.826667 17.066667-6.826667 23.893333 0l42.666667 42.666667c6.826667 6.826667 6.826667 17.066667 0 23.893333-3.413333 3.413333-6.826667 5.12-11.946667 5.12z" fill="#FFFFFF" p-id="3688"></path></svg>