<?xml version="1.0" encoding="UTF-8"?>
<svg id="Front_Side" xmlns="http://www.w3.org/2000/svg" version="1.1" viewBox="0 0 83.4 79.4">
  <!-- Generator: Adobe Illustrator 29.2.0, SVG Export Plug-In . SVG Version: 2.1.0 Build 108)  -->
  <defs>
    <style>
      .st0 {
        fill: #ffdb20;
      }
    </style>
  </defs>
  <g id="Greeting">
    <g>
      <path class="st0" d="M4.3,36.9c-.7,0-1.3-.2-1.7-.6s-.6-1-.6-1.7l.2-29.2c0-.8.2-1.3.6-1.7.4-.4.9-.6,1.7-.6s1.3.2,1.7.6c.4.4.6,1,.6,1.7v4.6h7.1v-4.6c0-.8.2-1.3.6-1.7.4-.4.9-.6,1.7-.6s1.3.2,1.7.6c.4.4.6,1,.6,1.7v13.1c0,.7-.3,1.3-.7,1.7s-.9.6-1.7.6-1.3-.2-1.7-.6-.6-1-.6-1.7v-4.8h-7.1v21c0,.7-.3,1.3-.7,1.7s-.9.6-1.7.6h0Z"/>
      <path class="st0" d="M23.8,20.6c-.8,0-1.3-.2-1.8-.6s-.6-1-.6-1.7V5.7c0-.8.3-1.3.7-1.7.4-.4,1-.6,1.8-.6h8.3c.6,0,1,.2,1.3.5.3.3.4.7.4,1.3s-.2,1-.5,1.3-.7.4-1.3.4h-6.3v3.2h5.8c.6,0,1,.2,1.3.5s.5.7.5,1.3-.2,1-.5,1.3-.7.4-1.3.4h-5.8v3.5h6.3c.6,0,1,.2,1.3.5s.4.7.4,1.3-.2,1-.5,1.3-.7.4-1.3.4h-8.3,0Z"/>
      <path class="st0" d="M38.7,20.7c-.7,0-1.3-.2-1.7-.6s-.6-1-.6-1.7V5.7c0-.7.3-1.3.7-1.7s1-.6,1.7-.6,1.3.2,1.7.6c.4.4.6,1,.6,1.7v11.3h5.9c.6,0,1.1.2,1.4.5s.5.8.5,1.4-.2,1.1-.5,1.4-.8.5-1.4.5h-8.3Z"/>
      <path class="st0" d="M53,20.8c-.7,0-1.3-.2-1.7-.6s-.6-1-.6-1.7V5.7c0-.7.3-1.3.7-1.7s1-.6,1.7-.6,1.3.2,1.7.6c.4.4.6,1,.6,1.7v11.3h5.9c.6,0,1.1.2,1.4.5s.5.8.5,1.4-.2,1.1-.5,1.4-.8.5-1.4.5h-8.3Z"/>
      <path class="st0" d="M72.4,21.1c-1.8,0-3.3-.4-4.6-1.1s-2.3-1.8-3.1-3.1-1.1-2.9-1.1-4.7.2-2.6.6-3.6c.4-1,1-2,1.8-2.8s1.7-1.4,2.8-1.8c1.1-.4,2.3-.6,3.6-.6s3.3.4,4.6,1.1c1.3.7,2.3,1.8,3.1,3.1.7,1.3,1.1,2.9,1.1,4.7s-.2,2.5-.6,3.6-1,2-1.8,2.8-1.7,1.4-2.8,1.8c-1.1.4-2.3.6-3.6.6h0ZM72.5,17.4c.9,0,1.6-.2,2.2-.6s1.1-1,1.4-1.8.5-1.7.5-2.8c0-1.6-.3-2.9-1.1-3.8-.7-.9-1.7-1.4-3-1.4s-1.6.2-2.2.6-1.1,1-1.4,1.7c-.3.8-.5,1.7-.5,2.8,0,1.6.3,2.9,1.1,3.8.7.9,1.7,1.4,3,1.4h0Z"/>
      <path class="st0" d="M11.8,36.9c-.5,0-.9-.2-1.2-.4s-.4-.7-.4-1.2v-9c0-.5.2-.9.5-1.2.3-.3.7-.4,1.2-.4h7.9c.5,0,1,.2,1.2.5s.4.7.4,1.2v9c0,.5-.2.9-.5,1.2s-.7.4-1.2.4-.9-.2-1.2-.4-.4-.7-.4-1.2v-8.1h-4.8v8.1c0,.5-.2.9-.4,1.2s-.7.4-1.2.4h0Z"/>
      <path class="st0" d="M25.2,37c-.5,0-.9-.2-1.2-.4s-.4-.7-.4-1.2v-9.1c0-.5.2-.9.5-1.2.3-.3.7-.4,1.2-.4h4.2c1.4,0,2.4.4,3.2,1.1.8.7,1.1,1.7,1.1,2.9s-.4,2.2-1.1,2.9-1.8,1-3.2,1h-2.7v2.7c0,.5-.1.9-.4,1.2s-.7.4-1.2.4h0ZM26.9,30.2h2.1c.6,0,1.1-.1,1.4-.4s.5-.6.5-1.2-.2-.9-.5-1.2-.8-.4-1.4-.4h-2.1v3.1h0Z"/>
      <path class="st0" d="M36.7,37.1c-.2,0-.4,0-.6,0s-.3-.2-.4-.3-.2-.3-.3-.5v-10.1c0-.5.2-.9.4-1.1s.6-.4,1.1-.4.8.1,1.1.4.4.6.4,1.1v6.2h-.5l5.5-6.8c.2-.3.5-.5.7-.7.2-.1.5-.2.9-.2s.5,0,.7.2.3.3.4.5.2.5.2.8v9.6c0,.5-.2.9-.4,1.1s-.6.4-1.1.4-.8,0-1.1-.4c-.2-.2-.4-.6-.4-1.1v-6.2h.5l-5.5,6.8c-.2.3-.5.5-.7.7-.2,0-.5.2-.8.2h-.1Z"/>
      <path class="st0" d="M50,37c-.5,0-1-.2-1.2-.4s-.4-.7-.4-1.2v-8.9c0-.5.2-.9.5-1.2.3-.3.7-.4,1.2-.4h4.2c.9,0,1.6.2,2.2.4.6.3,1.1.6,1.4,1.1.3.5.5,1,.5,1.7s-.2,1.3-.6,1.8c-.4.5-1,.9-1.7,1v-.3c.8.2,1.5.5,1.9,1,.5.5.7,1.2.7,2s-.4,1.9-1.2,2.5-1.8.9-3.1.9h-4.4ZM51.5,29.7h2.3c.6,0,1,0,1.3-.3.3-.2.4-.5.4-1s0-.7-.4-.9-.7-.3-1.3-.3h-2.3s0,2.5,0,2.5ZM51.4,34.7h2.6c.6,0,1,0,1.3-.3.3-.2.4-.6.4-1s0-.8-.4-1-.7-.3-1.3-.3h-2.6v2.7h0Z"/>
      <path class="st0" d="M62.1,37.1c-.5,0-1-.2-1.2-.4s-.4-.7-.4-1.2v-8.9c0-.5.2-.9.5-1.2.3-.3.7-.4,1.2-.4h5.8c.4,0,.7.1.9.3s.3.5.3.9,0,.7-.3.9c-.2.2-.5.3-.9.3h-4.5v2.3h4.1c.4,0,.7.1.9.3.2.2.3.5.3.9s0,.7-.3.9c-.2.2-.5.3-.9.3h-4.1v2.5h4.4c.4,0,.7,0,.9.3s.3.5.3.9,0,.7-.3.9-.5.3-.9.3h-5.8Z"/>
      <path class="st0" d="M75.6,37.3c-.5,0-.9-.2-1.2-.4s-.4-.7-.4-1.2v-8.1h-2.7c-.4,0-.8-.1-1-.4s-.3-.5-.3-1,0-.8.3-1c.2-.2.6-.3,1-.3h8.6c.4,0,.8.2,1,.4s.3.5.3,1,0,.7-.3,1c-.2.2-.6.3-1,.3h-2.7v8.1c0,.5-.2.9-.4,1.2s-.7.4-1.2.4h0Z"/>
      <path class="st0" d="M9.7,56.4c-1.7,0-3.1-.3-4.2-1s-2.1-1.5-2.7-2.7-.9-2.5-.9-4.1.2-2.2.6-3.2c.4-.9.9-1.8,1.6-2.4s1.5-1.2,2.5-1.5,2.1-.5,3.3-.5,1.3,0,2,.2,1.3.4,1.8.7c.4.2.7.5.8.8s.2.7.2,1-.2.6-.4.9c-.2.3-.4.5-.8.5s-.7,0-1,0c-.4-.2-.8-.3-1.3-.5-.4,0-.8-.2-1.3-.2-.9,0-1.6.2-2.2.5-.6.3-1,.8-1.3,1.4-.3.6-.4,1.4-.5,2.3s0,1.7.4,2.4.7,1.1,1.3,1.5c.6.3,1.3.5,2.2.5s.8,0,1.2,0c.4,0,.8-.2,1.2-.4s.8-.2,1.1,0c.3,0,.6.3.8.5s.3.5.4.9,0,.7-.1,1-.4.6-.8.8c-.5.3-1.1.5-1.8.7s-1.4.2-2.2.2h.1Z"/>
      <path class="st0" d="M17.2,56.4c-.4,0-.8,0-1.1-.3-.3-.2-.5-.5-.5-.8s0-.8.2-1.2l5.3-11.3c.3-.5.6-1,1-1.2s.8-.4,1.3-.4.9,0,1.3.4.7.7.9,1.2l5.2,11.4c.2.5.3.9.2,1.2,0,.4-.2.7-.5.8-.3.2-.7.3-1.1.3s-1,0-1.3-.4-.6-.7-.8-1.2l-1.1-2.7,1.5,1.1h-8.7l1.5-1.1-1.2,2.7c-.3.6-.5,1-.8,1.2s-.7.4-1.2.4h0ZM23.2,45.4l-2.5,5.8-.6-1h6.2l-.6,1-2.4-5.9h0Z"/>
      <path class="st0" d="M44.1,56.6c-.6,0-1.1-.2-1.4-.5s-.5-.8-.5-1.5v-9.9h-3.8v2.4c0,1.1,0,2.1-.3,3s-.4,1.8-.8,2.5-.7,1.4-1.2,2-1,1.1-1.6,1.6c-.4.3-.9.4-1.3.3-.5,0-.8-.3-1.2-.8-.3-.4-.4-.9-.3-1.3,0-.4.4-.8.8-1.2.4-.3.8-.7,1.1-1.2s.5-1,.7-1.6.3-1.3.4-2,0-1.6,0-2.5v-2.6c0-.7.2-1.1.5-1.5s.8-.5,1.5-.5h7.3c.7,0,1.2.2,1.5.6s.5.8.5,1.5v11.1c0,.6-.2,1.1-.6,1.5-.3.3-.8.5-1.4.5h0Z"/>
      <path class="st0" d="M49.5,56.6c-.4,0-.8,0-1.1-.3s-.5-.5-.5-.8,0-.8.2-1.2l5.3-11.3c.3-.5.6-1,1-1.2s.8-.4,1.3-.4.9,0,1.3.4.7.7.9,1.2l5.2,11.4c.2.5.3.9.2,1.2,0,.4-.2.7-.5.8s-.6.3-1.1.3-1,0-1.3-.4-.6-.7-.8-1.2l-1.1-2.7,1.5,1.1h-8.7l1.5-1.1-1.2,2.7c-.3.6-.5,1-.8,1.2s-.7.4-1.2.4h-.1ZM55.5,45.6l-2.5,5.8-.6-1h6.1l-.6,1-2.4-5.9h0Z"/>
      <path class="st0" d="M66.7,56.7c-.6,0-1-.2-1.3-.5s-.5-.8-.5-1.3v-11.7c0-.6.2-1,.5-1.3s.8-.5,1.4-.5.9,0,1.2.3.6.5.8,1l4.5,8.2h-.7l4.6-8.1c.3-.4.5-.8.8-.9s.7-.3,1.2-.3,1,.2,1.3.5.5.8.5,1.3v25.4c0,.6-.3,1-.6,1.3-.3.3-.7.5-1.3.5s-1-.2-1.3-.5-.4-.8-.4-1.3v-20.9h.6l-3.4,5.9c-.2.3-.4.5-.6.7s-.5.2-.9.2-.6,0-.9-.2-.4-.4-.6-.7l-3.4-6h.5v7.3c0,.6-.2,1-.5,1.3s-.7.5-1.3.5h0l-.2-.2Z"/>
      <g>
        <path class="st0" d="M10.6,65.4c0,2.3-1.8,3.8-4.3,3.8s-4.3-1.6-4.3-3.9,1.8-3.9,4.3-3.9,4.3,1.6,4.3,3.9h0ZM3.6,75.4v-5.1h2.8v3h8.1v2.1H3.6ZM4.7,65.3c0,1,.7,1.6,1.6,1.6s1.7-.6,1.7-1.6-.7-1.6-1.6-1.6-1.7.6-1.7,1.6ZM14.2,66.8v4.8h-2.7v-11.2h2.7v4.2h1.9v2.2h-1.9Z"/>
        <path class="st0" d="M25.8,68.9c-2,.3-5,.5-6.6.5h-1.6v-8.1h2.7v5.9h.4c1.4,0,3.4,0,4.7-.4l.3,2.1h.1ZM24.4,75.8c-3.3,0-5.4-1.2-5.3-3s2.1-3,5.4-3,5.4,1.2,5.4,3-2,3-5.5,3h0ZM21.9,72.8c0,.6.9,1,2.5,1s2.6-.3,2.6-1-.9-1-2.6-1-2.5.3-2.5,1ZM27.2,69.7v-3.4h-3.3v-1.9h3.4v-.8h-3.4v-1.9h3.4v-1.1h2.7v9.2h-2.8Z"/>
        <path class="st0" d="M31.6,66.2v-2.1h9v2.1s-9,0-9,0ZM36.1,73.5c-2.1,0-3.8-1.3-3.8-3.4s1.7-3.3,3.8-3.3,3.8,1.3,3.8,3.4-1.7,3.4-3.8,3.3h0ZM33.9,63.4v-2.1h4.6v2.1h-4.6ZM36.2,68.8c-.8,0-1.4.5-1.4,1.3s.6,1.3,1.4,1.3,1.5-.5,1.5-1.3-.6-1.3-1.4-1.3h0ZM44,68.8v7.2h-2.7v-15.5h2.8v6.1h1.9v2.2h-2Z"/>
        <path class="st0" d="M52.8,72.6c-.8-.4-2.1-1.8-2.4-3-.3,1.2-1.4,2.6-2.7,3.4l-1.5-2c2.1-1.3,3-3.6,3-6.7v-2.4h2.6v2.3c0,3.3.7,5.2,2.5,6.3l-1.5,2.1h0ZM54.3,75.5v-7.5h-1.6v-2.3h1.6v-4.8h2.5v14.6h-2.5ZM57.4,76.1v-15.5h2.6v15.5h-2.6Z"/>
        <path class="st0" d="M61.4,74.4v-2.2h2.8v-2.2l2.7.2v2.1h3v-2.1h2.7c0,0,0,2.1,0,2.1h2.8v2.2h-14ZM68.4,69.8c-3.5,0-5.9-1.8-5.9-4.3s2.4-4.2,5.9-4.2,5.9,1.9,5.9,4.3-2.3,4.2-5.9,4.2ZM68.5,63.5c-1.9,0-3.1.8-3.1,2.1s1.2,2.1,3.1,2.1,3.1-.8,3.1-2.1-1.2-2.1-3.1-2.1Z"/>
      </g>
      <path class="st0" d="M78.9,76.3c-.6,0-1-.2-1.3-.5s-.5-.8-.5-1.3.2-1,.5-1.3.8-.5,1.4-.5,1,.2,1.4.5.5.8.5,1.3-.2,1-.5,1.3-.8.5-1.4.5h0Z"/>
    </g>
  </g>
</svg>