<?xml version="1.0" encoding="UTF-8"?>
<svg id="Front_Side" xmlns="http://www.w3.org/2000/svg" version="1.1" viewBox="0 0 83.37 85.8">
  <!-- Generator: Adobe Illustrator 29.2.0, SVG Export Plug-In . SVG Version: 2.1.0 Build 108)  -->
  <defs>
    <style>
      .st0 {
        fill: #fedb19;
      }
    </style>
  </defs>
  <g id="Greeting">
    <g>
      <path class="st0" d="M38.77,80.06c0,.72-.21,1.27-.61,1.66s-.97.58-1.7.58l-29.24-.15c-.75,0-1.32-.2-1.71-.6-.39-.39-.58-.95-.58-1.67s.2-1.29.59-1.67c.39-.38.97-.57,1.72-.57l4.58.02.04-7.12-4.58-.02c-.75,0-1.32-.2-1.71-.59-.39-.38-.58-.94-.58-1.68s.2-1.27.59-1.65c.39-.38.97-.57,1.72-.56l13.1.07c.73,0,1.3.2,1.7.58.4.39.6.94.59,1.66s-.21,1.29-.61,1.67-.97.57-1.7.57l-4.82-.03-.04,7.12,20.97.11c.73,0,1.3.2,1.7.57s.6.94.59,1.69Z"/>
      <path class="st0" d="M22.51,60.64c0,.77-.21,1.35-.61,1.75s-.98.59-1.73.59l-12.6-.07c-.75,0-1.33-.21-1.72-.61-.4-.4-.59-.99-.59-1.75l.04-8.3c0-.59.15-1.03.45-1.32s.72-.44,1.28-.43,1.01.15,1.31.45c.3.3.45.74.45,1.32l-.03,6.34,3.28.02.03-5.8c0-.57.15-1.01.45-1.31.3-.3.73-.45,1.3-.45s1,.16,1.3.46c.29.3.44.74.43,1.31l-.03,5.8,3.55.02.03-6.34c0-.59.16-1.03.46-1.32.31-.29.73-.44,1.29-.43s1,.15,1.3.45.44.74.43,1.32l-.04,8.3Z"/>
      <path class="st0" d="M22.58,45.68c0,.72-.21,1.28-.61,1.67s-.96.59-1.68.59l-12.73-.07c-.73,0-1.3-.2-1.69-.6s-.58-.95-.58-1.67.2-1.29.59-1.67c.39-.38.96-.57,1.69-.57l11.26.06.03-5.97c0-.62.17-1.1.49-1.43s.78-.5,1.39-.49,1.07.17,1.39.51c.33.34.49.82.48,1.43l-.04,8.2Z"/>
      <path class="st0" d="M22.66,31.37c0,.72-.21,1.28-.61,1.67s-.96.59-1.68.59l-12.73-.07c-.73,0-1.3-.2-1.69-.6s-.58-.95-.58-1.67.2-1.29.59-1.67c.39-.38.96-.57,1.69-.57l11.26.06.03-5.97c0-.62.17-1.1.49-1.43s.78-.5,1.39-.49,1.07.17,1.39.51c.33.34.49.82.48,1.43l-.04,8.2Z"/>
      <path class="st0" d="M23.03,11.96c0,1.75-.39,3.28-1.14,4.6-.75,1.32-1.8,2.34-3.14,3.06-1.34.72-2.9,1.07-4.68,1.07-1.34,0-2.55-.22-3.64-.64-1.09-.42-2.03-1.02-2.81-1.8-.78-.78-1.38-1.71-1.79-2.79-.41-1.08-.61-2.27-.61-3.58,0-1.74.39-3.27,1.13-4.58.74-1.31,1.78-2.33,3.11-3.06,1.34-.73,2.9-1.09,4.69-1.08,1.34,0,2.55.22,3.64.64s2.03,1.02,2.82,1.8,1.38,1.71,1.8,2.79c.41,1.08.61,2.27.61,3.58ZM19.26,11.94c0-.87-.2-1.6-.6-2.21-.41-.6-.99-1.07-1.76-1.4-.76-.33-1.68-.5-2.76-.5-1.62,0-2.87.34-3.78,1.06-.9.71-1.35,1.71-1.36,3,0,.85.19,1.58.59,2.2s.97,1.09,1.73,1.41c.76.33,1.68.5,2.77.5,1.62,0,2.88-.34,3.79-1.06.91-.71,1.37-1.72,1.38-3Z"/>
      <path class="st0" d="M38.85,72.59c0,.51-.15.89-.43,1.17s-.68.41-1.2.41l-9.05-.05c-.53,0-.93-.15-1.21-.43-.28-.28-.42-.69-.42-1.23l.04-7.91c0-.54.14-.95.43-1.23s.69-.42,1.22-.42l9.05.05c.52,0,.92.14,1.19.41.28.27.42.67.42,1.18s-.15.9-.43,1.17-.68.41-1.2.41l-8.1-.04-.03,4.88,8.1.04c.52,0,.92.14,1.19.4s.42.66.42,1.19Z"/>
      <path class="st0" d="M38.92,59.16c0,.51-.15.89-.43,1.17s-.68.41-1.18.41l-9.1-.05c-.52,0-.91-.15-1.19-.43-.27-.28-.41-.68-.41-1.18l.02-4.24c0-1.38.37-2.44,1.08-3.19.71-.75,1.69-1.12,2.93-1.11s2.21.39,2.92,1.14,1.05,1.82,1.04,3.2v2.67s2.73.01,2.73.01c.51,0,.9.14,1.18.4s.42.66.42,1.19ZM32.15,57.54v-2.12c.01-.6-.11-1.06-.37-1.38-.26-.32-.64-.49-1.16-.49s-.92.16-1.17.48-.38.78-.39,1.38v2.12s3.09.02,3.09.02Z"/>
      <path class="st0" d="M38.98,47.71c0,.21-.04.4-.11.57-.07.17-.17.32-.3.44-.13.12-.3.21-.49.27-.2.06-.42.09-.67.09l-9.41-.05c-.48,0-.85-.13-1.1-.39-.25-.25-.38-.62-.37-1.1s.13-.85.38-1.09.62-.37,1.1-.36l6.24.03v.48s-6.8-5.5-6.8-5.5c-.32-.25-.55-.49-.68-.72-.14-.22-.2-.53-.2-.92,0-.26.06-.49.18-.68s.28-.34.49-.44c.21-.1.46-.15.75-.15l9.55.05c.49,0,.87.13,1.12.38s.38.61.37,1.1-.13.85-.38,1.09c-.25.25-.63.37-1.12.36l-6.24-.03v-.46s6.82,5.48,6.82,5.48c.31.25.53.49.68.7.14.21.21.5.21.85Z"/>
      <path class="st0" d="M38.89,34.37c0,.54-.15.95-.43,1.23s-.69.42-1.22.42l-8.88-.05c-.53,0-.93-.15-1.21-.43-.28-.28-.42-.69-.42-1.23l.02-4.21c0-.87.14-1.62.4-2.23.26-.61.63-1.08,1.1-1.4.47-.32,1.03-.48,1.66-.47.71,0,1.32.21,1.82.62.5.41.85.97,1.02,1.67h-.28c.15-.83.49-1.47,1.01-1.92.52-.45,1.18-.68,1.99-.67,1.07,0,1.91.39,2.52,1.16s.91,1.81.91,3.13l-.02,4.38ZM31.57,32.95v-2.26c.01-.57-.09-1-.29-1.27-.21-.27-.52-.41-.95-.41s-.74.13-.94.4c-.2.27-.3.69-.31,1.27v2.26s2.49.01,2.49.01ZM36.57,32.98v-2.57c.02-.59-.09-1.02-.32-1.29-.22-.27-.56-.41-1.01-.41s-.78.13-1,.4c-.22.27-.33.7-.33,1.28v2.57s2.66.01,2.66.01Z"/>
      <path class="st0" d="M38.96,22.27c0,.54-.15.95-.43,1.23s-.69.42-1.22.42l-8.88-.05c-.53,0-.93-.15-1.21-.43-.28-.28-.42-.69-.42-1.23l.03-5.84c0-.41.11-.72.31-.93s.51-.31.9-.31.71.11.92.31c.21.21.32.52.31.93l-.02,4.46h2.31s.02-4.07.02-4.07c0-.4.11-.71.31-.92.21-.21.51-.32.92-.32s.71.11.91.32c.21.21.31.52.3.92l-.02,4.08h2.5s.02-4.45.02-4.45c0-.41.11-.72.32-.93.21-.21.52-.31.91-.31s.71.11.91.31.31.52.3.93l-.03,5.84Z"/>
      <path class="st0" d="M39.18,8.81c0,.51-.15.89-.43,1.17s-.68.41-1.18.41l-8.12-.04v2.71c-.02.43-.13.75-.36.97s-.54.33-.96.33-.75-.12-.96-.34c-.22-.23-.32-.55-.32-.98l.04-8.58c0-.43.11-.75.33-.97.22-.22.54-.33.97-.33s.73.11.95.34c.22.23.33.55.33.98v2.71s8.1.04,8.1.04c.51,0,.9.14,1.18.4s.42.66.42,1.19Z"/>
      <path class="st0" d="M58.32,74.7c0,1.65-.33,3.06-.97,4.24-.64,1.18-1.54,2.08-2.7,2.7-1.16.62-2.51.93-4.06.92-1.15,0-2.2-.19-3.15-.56-.94-.36-1.75-.89-2.42-1.58s-1.19-1.52-1.54-2.5c-.35-.98-.53-2.09-.52-3.31,0-.65.08-1.32.23-2.02.15-.7.38-1.31.67-1.85.21-.39.48-.67.81-.82s.66-.21,1-.15c.34.05.64.18.91.37.27.2.45.45.53.76.09.31.04.65-.14,1.01-.2.42-.35.84-.46,1.26-.11.41-.16.85-.16,1.3,0,.87.16,1.6.48,2.19.33.59.81,1.03,1.44,1.33.63.3,1.41.45,2.34.46s1.72-.14,2.36-.43c.64-.29,1.13-.73,1.47-1.31.33-.58.5-1.31.51-2.18,0-.37-.04-.76-.13-1.19-.09-.42-.23-.84-.43-1.25-.18-.42-.23-.8-.14-1.13.09-.33.26-.6.51-.8s.55-.33.88-.39c.33-.06.66,0,.98.14s.58.41.78.78c.29.49.52,1.11.69,1.83.17.73.25,1.45.24,2.17Z"/>
      <path class="st0" d="M58.31,67.24c0,.44-.11.8-.31,1.1-.21.3-.49.48-.85.54-.36.07-.76,0-1.21-.2l-11.3-5.32c-.55-.26-.95-.57-1.2-.95s-.38-.8-.37-1.28.13-.9.39-1.26.66-.67,1.21-.94l11.36-5.2c.45-.22.86-.3,1.23-.24.37.07.65.24.84.53.19.29.29.65.29,1.07,0,.56-.13,1-.39,1.3s-.67.57-1.23.81l-2.69,1.13,1.09-1.47-.05,8.71-1.07-1.51,2.68,1.16c.56.26.97.52,1.22.79s.38.68.37,1.23ZM47.31,61.2l5.84,2.48-1.02.59.03-6.15,1.01.6-5.87,2.44v.04Z"/>
      <path class="st0" d="M58.46,40.29c0,.62-.18,1.1-.53,1.43s-.84.5-1.47.5l-9.94-.05-.02,3.89h2.43c1.09.02,2.09.11,3,.28.92.17,1.75.42,2.51.75s1.44.73,2.04,1.22c.6.48,1.12,1.03,1.56,1.64.31.42.42.86.34,1.31-.08.45-.33.84-.76,1.18-.44.32-.88.43-1.31.33-.44-.1-.82-.36-1.16-.79-.33-.42-.73-.78-1.19-1.07s-.98-.53-1.58-.73c-.6-.2-1.27-.33-2.02-.42s-1.57-.14-2.47-.14h-2.58c-.65-.02-1.14-.19-1.49-.54s-.51-.84-.51-1.49l.04-7.29c0-.65.18-1.15.53-1.5.35-.35.85-.52,1.49-.52l11.1.06c.63,0,1.12.18,1.47.52.34.34.51.82.51,1.44Z"/>
      <path class="st0" d="M58.48,34.94c0,.44-.11.8-.31,1.1-.21.3-.49.48-.85.54-.36.07-.76,0-1.21-.2l-11.3-5.32c-.55-.26-.95-.57-1.2-.95s-.38-.8-.37-1.28.13-.9.39-1.26.66-.67,1.21-.94l11.36-5.2c.45-.22.86-.3,1.23-.24.37.07.65.24.84.53.19.29.29.65.29,1.07,0,.56-.13,1-.39,1.3s-.67.57-1.23.81l-2.69,1.13,1.09-1.47-.05,8.71-1.07-1.51,2.68,1.16c.56.26.97.52,1.22.79s.38.68.37,1.23ZM47.48,28.9l5.84,2.48-1.02.59.03-6.15,1.01.6-5.87,2.44v.04Z"/>
      <path class="st0" d="M58.57,17.71c0,.56-.16,1-.47,1.3s-.75.45-1.31.45l-11.73-.06c-.58,0-1.02-.17-1.32-.49s-.45-.78-.45-1.38c0-.49.1-.88.29-1.17s.51-.55.95-.79l8.18-4.5v.74s-8.14-4.57-8.14-4.57c-.44-.26-.75-.53-.94-.82s-.28-.68-.28-1.17c0-.56.16-1,.46-1.3s.75-.45,1.32-.45l25.4.13c.56,0,1,.15,1.31.45.31.3.46.74.46,1.31s-.16,1-.47,1.3c-.31.3-.75.45-1.31.45l-20.94-.11v-.45s5.91,3.44,5.91,3.44c.31.2.54.41.69.63s.23.51.23.88-.08.64-.24.87-.39.43-.7.61l-5.96,3.39v-.49s7.3.04,7.3.04c.56,0,1,.15,1.31.45.31.3.46.74.46,1.31Z"/>
      <g>
        <path class="st0" d="M67.26,73.79c2.27.01,3.84,1.83,3.83,4.33s-1.62,4.29-3.89,4.28c-2.29-.01-3.87-1.81-3.86-4.33s1.62-4.29,3.92-4.28ZM77.31,80.82l-5.12-.03v-2.73s3.04.02,3.04.02l.04-8.15h2.1s-.06,10.89-.06,10.89ZM67.23,79.74c.98,0,1.58-.66,1.59-1.62s-.59-1.67-1.59-1.68-1.64.73-1.64,1.64c0,.98.61,1.65,1.64,1.66ZM68.67,70.19l4.83.03v2.66s-11.17-.06-11.17-.06v-2.66s4.15.02,4.15.02v-1.91s2.19.01,2.19.01v1.91Z"/>
        <path class="st0" d="M70.83,58.57c.35,2.01.47,4.97.46,6.62,0,.52-.02,1.01-.02,1.55l-8.11-.04v-2.68s5.93.03,5.93.03v-.46c0-1.38-.1-3.42-.37-4.71l2.11-.3ZM77.71,59.97c-.02,3.32-1.23,5.36-3.02,5.35s-3-2.06-2.98-5.38,1.2-5.42,3.04-5.41c1.79,0,2.98,2.04,2.96,5.45ZM74.71,62.46c.62,0,.98-.92.99-2.5,0-1.67-.35-2.6-.97-2.6-.67,0-1.04.92-1.04,2.59,0,1.58.35,2.51,1.02,2.51ZM71.63,57.19l-3.45-.02-.02,3.37h-1.91s.02-3.38.02-3.38h-.79s-.02,3.36-.02,3.36h-1.91s.02-3.38.02-3.38h-1.15s.01-2.67.01-2.67l9.21.05v2.66Z"/>
        <path class="st0" d="M68.14,52.79h-2.08s.05-8.95.05-8.95h2.08s-.05,8.95-.05,8.95ZM75.44,48.26c-.01,2.1-1.32,3.76-3.39,3.75s-3.34-1.68-3.33-3.78,1.34-3.82,3.37-3.81,3.36,1.74,3.35,3.85ZM65.29,50.48h-2.1s.02-4.62.02-4.62h2.1s-.02,4.62-.02,4.62ZM70.73,48.24c0,.79.51,1.39,1.33,1.4s1.33-.59,1.33-1.39-.49-1.45-1.32-1.45-1.34.63-1.35,1.44ZM70.75,40.45l7.22.04v2.68s-15.48-.08-15.48-.08v-2.68s6.06.03,6.06.03v-1.89s2.21.01,2.21.01v1.89Z"/>
        <path class="st0" d="M74.51,31.6c-.45.82-1.82,2.07-2.97,2.41,1.25.35,2.62,1.37,3.42,2.68l-2,1.54c-1.28-2.1-3.58-2.99-6.7-3.01h-2.42s.01-2.61.01-2.61h2.27c3.35.03,5.23-.73,6.27-2.46l2.12,1.46ZM77.4,30.15l-7.54-.04v1.62s-2.28-.01-2.28-.01v-1.62s-4.77-.03-4.77-.03v-2.42s14.6.08,14.6.08v2.42ZM78.04,27.03l-15.47-.08v-2.53s15.48.08,15.48.08v2.53Z"/>
        <path class="st0" d="M76.33,23h-2.17s.01-2.78.01-2.78h-2.23s.15-2.73.15-2.73h2.1s.02-2.98.02-2.98h-2.1s-.12-2.71-.12-2.71h2.23s.01-2.81.01-2.81h2.17s-.07,14-.07,14ZM71.74,15.99c-.02,3.54-1.85,5.87-4.29,5.85-2.41-.01-4.22-2.36-4.2-5.9s1.85-5.87,4.26-5.85,4.25,2.32,4.23,5.9ZM65.4,15.95c0,1.86.79,3.08,2.1,3.09s2.1-1.21,2.11-3.07-.79-3.08-2.08-3.09-2.12,1.21-2.13,3.07Z"/>
      </g>
      <path class="st0" d="M78.16,5.54c0,.57-.18,1.02-.52,1.35-.34.33-.79.5-1.35.49s-.98-.17-1.31-.51c-.33-.34-.5-.79-.49-1.36s.17-1.05.51-1.37.78-.48,1.32-.48,1,.17,1.34.49.51.78.5,1.37Z"/>
    </g>
  </g>
</svg>