<?xml version="1.0" encoding="UTF-8"?>
<svg id="Backside" xmlns="http://www.w3.org/2000/svg" viewBox="0 0 89.88 44.41">
  <defs>
    <style>
      .cls-1 {
        fill: #fed500;
      }

      .cls-2 {
        fill: #515051;
      }
    </style>
  </defs>
  <g id="Logo">
    <path class="cls-2" d="M16.03,21.14c-.35,0-.64-.08-.85-.24-.21-.16-.34-.38-.39-.65-.04-.27,0-.58.15-.92l5.82-12.9c.19-.43.42-.73.69-.91s.59-.28.94-.28.64.09.92.28c.27.18.5.49.69.91l5.84,12.9c.16.34.22.65.18.93s-.17.5-.38.65c-.21.15-.48.23-.82.23-.41,0-.73-.1-.96-.3s-.43-.5-.61-.92l-1.43-3.33,1.19.77h-9.31l1.19-.77-1.41,3.33c-.19.43-.39.73-.6.93-.21.19-.5.29-.88.29ZM22.36,8.48l-3.09,7.34-.57-.71h7.37l-.55.71-3.11-7.34h-.04Z"/>
    <path class="cls-2" d="M33.6,21.14c-.43,0-.75-.12-.98-.35-.23-.23-.34-.57-.34-1.01V6.65c0-.45.11-.8.34-1.05.23-.24.53-.36.89-.36.34,0,.59.06.76.19.17.13.37.33.61.63l8.45,10.96h-.57V6.58c0-.43.11-.76.34-.99s.55-.35.98-.35.75.12.97.35.33.57.33.99v13.23c0,.41-.1.74-.31.97-.21.24-.48.35-.84.35s-.61-.07-.8-.2c-.2-.13-.42-.34-.65-.64l-8.43-10.96h.55v10.43c0,.44-.11.78-.33,1.01-.22.24-.54.35-.97.35Z"/>
    <path class="cls-2" d="M50.56,39.52c-.44,0-.78-.13-1.01-.4-.24-.26-.35-.63-.35-1.1V12.22c0-.48.12-.86.35-1.11.24-.26.57-.39,1.01-.39s.78.13,1.03.39c.24.26.36.63.36,1.11v25.8c0,.47-.12.84-.35,1.1s-.58.4-1.04.4Z"/>
    <path class="cls-2" d="M61.75,21.18c-.65,0-1.29-.05-1.94-.14-.65-.1-1.26-.24-1.83-.44-.57-.2-1.09-.44-1.54-.74-.26-.18-.45-.39-.55-.64-.1-.25-.14-.5-.1-.74.04-.24.13-.45.29-.64.15-.18.35-.3.58-.34.24-.04.49.02.77.2.65.38,1.33.66,2.05.84.72.18,1.48.26,2.27.26,1.16,0,2.01-.19,2.54-.59.53-.39.79-.89.79-1.51,0-.51-.19-.92-.56-1.21-.38-.29-1.02-.54-1.93-.73l-2.43-.51c-1.4-.29-2.44-.79-3.12-1.49s-1.02-1.62-1.02-2.77c0-.72.15-1.37.44-1.96.29-.59.71-1.09,1.25-1.52.54-.43,1.18-.75,1.92-.98.74-.23,1.56-.34,2.46-.34s1.72.11,2.51.33c.79.22,1.51.54,2.14.97.24.16.39.36.47.6s.1.47.05.69-.15.42-.31.58c-.16.16-.36.26-.61.29-.24.03-.52-.04-.83-.22-.54-.31-1.1-.53-1.65-.66-.56-.13-1.16-.2-1.81-.2s-1.26.1-1.74.29-.86.46-1.11.8c-.26.35-.39.75-.39,1.22,0,.53.18.95.53,1.27.35.32.95.56,1.81.74l2.4.51c1.46.31,2.54.79,3.25,1.46.71.66,1.07,1.54,1.07,2.65,0,.71-.14,1.35-.43,1.92-.29.57-.7,1.07-1.23,1.48-.54.41-1.18.73-1.93.95-.75.22-1.6.33-2.54.33Z"/>
    <path class="cls-2" d="M70.72,21.14c-.35,0-.64-.08-.85-.24-.21-.16-.34-.38-.39-.65-.04-.27,0-.58.15-.92l5.82-12.9c.19-.43.42-.73.69-.91s.59-.28.94-.28.64.09.92.28c.27.18.5.49.69.91l5.84,12.9c.16.34.22.65.18.93s-.17.5-.38.65c-.21.15-.48.23-.82.23-.41,0-.73-.1-.96-.3s-.43-.5-.61-.92l-1.43-3.33,1.19.77h-9.31l1.19-.77-1.41,3.33c-.19.43-.39.73-.6.93-.21.19-.5.29-.88.29ZM77.05,8.48l-3.09,7.34-.57-.71h7.37l-.55.71-3.11-7.34h-.04Z"/>
    <path class="cls-2" d="M6.44,39.51c-.49,0-.86-.13-1.11-.39-.26-.26-.39-.63-.39-1.11v-12.55c0-.49.13-.86.39-1.11.26-.26.63-.39,1.11-.39h4.28c2.6,0,4.61.67,6.03,2.01,1.42,1.34,2.13,3.26,2.13,5.76,0,1.25-.18,2.36-.54,3.32-.36.96-.89,1.78-1.59,2.44-.7.66-1.55,1.17-2.56,1.51-1.01.35-2.17.52-3.47.52h-4.28ZM7.76,37.18h2.78c.91,0,1.7-.11,2.37-.34.67-.23,1.23-.57,1.68-1.01.45-.45.78-1.01,1-1.7.22-.68.33-1.48.33-2.39,0-1.82-.45-3.18-1.35-4.08-.9-.9-2.24-1.35-4.04-1.35h-2.78v10.87Z"/>
    <path class="cls-2" d="M23.24,39.51c-.49,0-.86-.13-1.11-.39-.26-.26-.39-.63-.39-1.11v-12.55c0-.49.13-.86.39-1.11.26-.26.63-.39,1.11-.39h7.87c.37,0,.65.1.85.29.2.19.3.46.3.82s-.1.65-.3.85c-.2.2-.48.3-.85.3h-6.66v4.28h6.17c.38,0,.67.1.86.29s.29.47.29.84-.1.65-.29.84-.48.29-.86.29h-6.17v4.52h6.66c.37,0,.65.1.85.29.2.19.3.47.3.84s-.1.65-.3.84c-.2.19-.48.29-.85.29h-7.87Z"/>
    <path class="cls-2" d="M40.04,39.73c-.65,0-1.29-.05-1.94-.14-.65-.1-1.26-.24-1.83-.44-.57-.2-1.09-.44-1.54-.74-.26-.18-.45-.39-.55-.64-.1-.25-.14-.5-.1-.74.04-.24.13-.45.29-.64.15-.18.35-.3.58-.34.24-.04.49.02.77.2.65.38,1.33.66,2.05.84.72.18,1.48.26,2.27.26,1.16,0,2.01-.19,2.54-.59.53-.39.79-.89.79-1.51,0-.51-.19-.92-.56-1.21-.38-.29-1.02-.54-1.93-.73l-2.43-.51c-1.4-.29-2.44-.79-3.12-1.49s-1.02-1.62-1.02-2.77c0-.72.15-1.37.44-1.96.29-.59.71-1.09,1.25-1.52.54-.43,1.18-.75,1.92-.98.74-.23,1.56-.34,2.46-.34s1.72.11,2.51.33c.79.22,1.51.54,2.14.97.24.16.39.36.47.6s.1.47.05.69-.15.42-.31.58c-.16.16-.36.26-.61.29-.24.03-.52-.04-.83-.22-.54-.31-1.1-.53-1.65-.66-.56-.13-1.16-.2-1.81-.2s-1.26.1-1.74.29-.86.46-1.11.8c-.26.35-.39.75-.39,1.22,0,.53.18.95.53,1.27.35.32.95.56,1.81.74l2.4.51c1.46.31,2.54.79,3.25,1.46.71.66,1.07,1.54,1.07,2.65,0,.71-.14,1.35-.43,1.92-.29.57-.7,1.07-1.23,1.48-.54.41-1.18.73-1.93.95-.75.22-1.6.33-2.54.33Z"/>
    <path class="cls-2" d="M62.98,39.73c-1.72,0-3.17-.32-4.36-.97-1.18-.65-2.08-1.56-2.7-2.76-.62-1.19-.93-2.6-.93-4.23,0-1.23.18-2.34.54-3.33s.88-1.83,1.57-2.53,1.52-1.23,2.5-1.61c.99-.38,2.1-.56,3.35-.56.82,0,1.65.1,2.48.3.83.2,1.61.53,2.35,1,.25.16.42.36.5.6s.09.47.03.72c-.06.24-.17.45-.33.63-.16.18-.36.29-.61.33-.24.04-.51-.01-.8-.18-.56-.32-1.13-.56-1.7-.71-.57-.15-1.21-.22-1.92-.22-1.09,0-2.01.22-2.76.65s-1.31,1.06-1.69,1.89c-.38.82-.56,1.83-.56,3.02,0,1.81.43,3.18,1.3,4.12.87.94,2.15,1.41,3.86,1.41.59,0,1.18-.06,1.79-.18.6-.12,1.19-.28,1.76-.49l-.55,1.26v-4.7h-2.43c-.37,0-.65-.1-.85-.29s-.3-.45-.3-.77.1-.6.3-.77c.2-.18.48-.26.85-.26h3.64c.37,0,.65.1.85.3.2.2.3.48.3.85v5.36c0,.32-.06.6-.19.82s-.33.38-.61.48c-.65.24-1.39.43-2.23.59s-1.66.23-2.47.23Z"/>
    <path class="cls-2" d="M73.06,39.69c-.43,0-.75-.12-.98-.35-.23-.23-.34-.57-.34-1.01v-13.12c0-.45.11-.8.34-1.05.23-.24.53-.36.89-.36.34,0,.59.06.76.19.17.13.37.33.61.63l8.45,10.96h-.57v-15.19c0-.43.11-.76.34-.99s.55-.35.98-.35.75.12.97.35.33.57.33.99v17.99c0,.41-.1.74-.31.97-.21.24-.48.35-.84.35s-.61-.07-.8-.2c-.2-.13-.42-.34-.65-.64l-8.43-10.96h.55v10.43c0,.44-.11.78-.33,1.01-.22.24-.54.35-.97.35Z"/>
    <path class="cls-1" d="M50.56,8.67c-.52,0-.92-.13-1.2-.39-.29-.26-.43-.61-.43-1.07s.14-.83.43-1.08c.29-.25.69-.37,1.2-.37s.93.12,1.21.37c.28.25.42.61.42,1.08s-.14.81-.42,1.07c-.28.26-.68.39-1.21.39Z"/>
  </g>
</svg>