<?xml version="1.0" encoding="UTF-8"?>
<svg xmlns="http://www.w3.org/2000/svg" viewBox="0 0 540.61 339.86">
  <defs>
    <style>
      .cls-1 {
        fill: #424242;
      }

      .cls-2 {
        fill: #ffde17;
      }

      .cls-3 {
        fill: #fedb19;
      }

      .cls-4 {
        fill: #fff;
      }

      .cls-5 {
        fill: #fed500;
      }

      .cls-6 {
        fill: #515051;
      }
    </style>
  </defs>
  <g id="Front_Side" data-name="Front Side">
    <rect id="Background" class="cls-4" y="183.41" width="265.46" height="156.44"/>
    <g id="Greeting">
      <g>
        <path class="cls-3" d="M20.21,234.31c-.72,0-1.27-.21-1.66-.61s-.58-.97-.58-1.7l.15-29.24c0-.75.2-1.32.6-1.71.39-.39.95-.58,1.67-.58s1.29.2,1.67.59c.38.39.57.97.57,1.72l-.02,4.58,7.12.04.02-4.58c0-.75.2-1.32.59-1.71.38-.39.94-.58,1.68-.58s1.27.2,1.65.59c.38.39.57.97.56,1.72l-.07,13.1c0,.73-.2,1.3-.58,1.7-.39.4-.94.6-1.66.59s-1.29-.21-1.67-.61-.57-.97-.57-1.7l.03-4.82-7.12-.04-.11,20.97c0,.73-.2,1.3-.57,1.7s-.94.6-1.69.59Z"/>
        <path class="cls-3" d="M39.63,218.05c-.77,0-1.35-.21-1.75-.61s-.59-.98-.59-1.73l.07-12.6c0-.75.21-1.33.61-1.72.4-.4.99-.59,1.75-.59l8.3.04c.59,0,1.03.15,1.32.45s.44.72.43,1.28-.15,1.01-.45,1.31c-.3.3-.74.45-1.32.45l-6.34-.03-.02,3.28,5.8.03c.57,0,1.01.15,1.31.45.3.3.45.73.45,1.3s-.16,1-.46,1.3c-.3.29-.74.44-1.31.43l-5.8-.03-.02,3.55,6.34.03c.59,0,1.03.16,1.32.46.29.31.44.73.43,1.29s-.15,1-.45,1.3-.74.44-1.32.43l-8.3-.04Z"/>
        <path class="cls-3" d="M54.59,218.12c-.72,0-1.28-.21-1.67-.61s-.59-.96-.59-1.68l.07-12.73c0-.73.2-1.3.6-1.69s.95-.58,1.67-.58,1.29.2,1.67.59c.38.39.57.96.57,1.69l-.06,11.26,5.97.03c.62,0,1.1.17,1.43.49s.5.78.49,1.39-.17,1.07-.51,1.39c-.34.33-.82.49-1.43.48l-8.2-.04Z"/>
        <path class="cls-3" d="M68.91,218.2c-.72,0-1.28-.21-1.67-.61s-.59-.96-.59-1.68l.07-12.73c0-.73.2-1.3.6-1.69s.95-.58,1.67-.58,1.29.2,1.67.59c.38.39.57.96.57,1.69l-.06,11.26,5.97.03c.62,0,1.1.17,1.43.49s.5.78.49,1.39-.17,1.07-.51,1.39c-.34.33-.82.49-1.43.48l-8.2-.04Z"/>
        <path class="cls-3" d="M88.31,218.57c-1.75,0-3.28-.39-4.6-1.14-1.32-.75-2.34-1.8-3.06-3.14-.72-1.34-1.07-2.9-1.07-4.68,0-1.34.22-2.55.64-3.64.42-1.09,1.02-2.03,1.8-2.81.78-.78,1.71-1.38,2.79-1.79,1.08-.41,2.27-.61,3.58-.61,1.74,0,3.27.39,4.58,1.13,1.31.74,2.33,1.78,3.06,3.11.73,1.34,1.09,2.9,1.08,4.69,0,1.34-.22,2.55-.64,3.64s-1.02,2.03-1.8,2.82-1.71,1.38-2.79,1.8c-1.08.41-2.27.61-3.58.61ZM88.33,214.8c.87,0,1.6-.2,2.21-.6.6-.41,1.07-.99,1.4-1.76.33-.76.5-1.68.5-2.76,0-1.62-.34-2.87-1.06-3.78-.71-.9-1.71-1.35-3-1.36-.85,0-1.58.19-2.2.59s-1.09.97-1.41,1.73c-.33.76-.5,1.68-.5,2.77,0,1.62.34,2.88,1.06,3.79.71.91,1.72,1.37,3,1.38Z"/>
        <path class="cls-3" d="M27.68,234.39c-.51,0-.89-.15-1.17-.43s-.41-.68-.41-1.2l.05-9.05c0-.53.15-.93.43-1.21.28-.28.69-.42,1.23-.42l7.91.04c.54,0,.95.14,1.23.43s.42.69.42,1.22l-.05,9.05c0,.52-.14.92-.41,1.19-.27.28-.67.42-1.18.42s-.9-.15-1.17-.43-.41-.68-.41-1.2l.04-8.1-4.88-.03-.04,8.1c0,.52-.14.92-.4,1.19s-.66.42-1.19.42Z"/>
        <path class="cls-3" d="M41.11,234.46c-.51,0-.89-.15-1.17-.43s-.41-.68-.41-1.18l.05-9.1c0-.52.15-.91.43-1.19.28-.27.68-.41,1.18-.41l4.24.02c1.38,0,2.44.37,3.19,1.08.75.71,1.12,1.69,1.11,2.93s-.39,2.21-1.14,2.92-1.82,1.05-3.2,1.04h-2.67s-.01,2.73-.01,2.73c0,.51-.14.9-.4,1.18s-.66.42-1.19.42ZM42.74,227.69h2.12c.6.01,1.06-.11,1.38-.37.32-.26.49-.64.49-1.16s-.16-.92-.48-1.17-.78-.38-1.38-.39h-2.12s-.02,3.09-.02,3.09Z"/>
        <path class="cls-3" d="M52.56,234.52c-.21,0-.4-.04-.57-.11-.17-.07-.32-.17-.44-.3-.12-.13-.21-.3-.27-.49-.06-.2-.09-.42-.09-.67l.05-9.41c0-.48.13-.85.39-1.1.25-.25.62-.38,1.1-.37s.85.13,1.09.38.37.62.36,1.1l-.03,6.24h-.48s5.5-6.8,5.5-6.8c.25-.32.49-.55.72-.68.22-.14.53-.2.92-.2.26,0,.49.06.68.18s.34.28.44.49c.1.21.15.46.15.75l-.05,9.55c0,.49-.13.87-.38,1.12s-.61.38-1.1.37-.85-.13-1.09-.38c-.25-.25-.37-.63-.36-1.12l.03-6.24h.46s-5.48,6.82-5.48,6.82c-.25.31-.49.53-.7.68-.21.14-.5.21-.85.21Z"/>
        <path class="cls-3" d="M65.9,234.43c-.54,0-.95-.15-1.23-.43s-.42-.69-.42-1.22l.05-8.88c0-.53.15-.93.43-1.21.28-.28.69-.42,1.23-.42l4.21.02c.87,0,1.62.14,2.23.4.61.26,1.08.63,1.4,1.1.32.47.48,1.03.47,1.66,0,.71-.21,1.32-.62,1.82-.41.5-.97.85-1.67,1.02v-.28c.83.15,1.47.49,1.92,1.01.45.52.68,1.18.67,1.99,0,1.07-.39,1.91-1.16,2.52s-1.81.91-3.13.91l-4.38-.02ZM67.32,227.11h2.26c.57.01,1-.09,1.27-.29.27-.21.41-.52.41-.95s-.13-.74-.4-.94c-.27-.2-.69-.3-1.27-.31h-2.26s-.01,2.49-.01,2.49ZM67.29,232.11h2.57c.59.02,1.02-.09,1.29-.32.27-.22.41-.56.41-1.01s-.13-.78-.4-1c-.27-.22-.7-.33-1.28-.33h-2.57s-.01,2.66-.01,2.66Z"/>
        <path class="cls-3" d="M78,234.49c-.54,0-.95-.15-1.23-.43s-.42-.69-.42-1.22l.05-8.88c0-.53.15-.93.43-1.21.28-.28.69-.42,1.23-.42l5.84.03c.41,0,.72.11.93.31s.31.51.31.9-.11.71-.31.92c-.21.21-.52.32-.93.31l-4.46-.02v2.31s4.07.02,4.07.02c.4,0,.71.11.92.31.21.21.32.51.32.92s-.11.71-.32.91c-.21.21-.52.31-.92.3l-4.08-.02v2.5s4.45.02,4.45.02c.41,0,.72.11.93.32.21.21.31.52.31.91s-.11.71-.31.91-.52.31-.93.3l-5.84-.03Z"/>
        <path class="cls-3" d="M91.47,234.72c-.51,0-.89-.15-1.17-.43s-.41-.68-.41-1.18l.04-8.12h-2.71c-.43-.02-.75-.13-.97-.36s-.33-.54-.33-.96.12-.75.34-.96c.23-.22.55-.32.98-.32l8.58.04c.43,0,.75.11.97.33.22.22.33.54.33.97s-.11.73-.34.95c-.23.22-.55.33-.98.33h-2.71s-.04,8.1-.04,8.1c0,.51-.14.9-.4,1.18s-.66.42-1.19.42Z"/>
        <path class="cls-3" d="M25.57,253.86c-1.65,0-3.06-.33-4.24-.97-1.18-.64-2.08-1.54-2.7-2.7-.62-1.16-.93-2.51-.92-4.06,0-1.15.19-2.2.56-3.15.36-.94.89-1.75,1.58-2.42s1.52-1.19,2.5-1.54c.98-.35,2.09-.53,3.31-.52.65,0,1.32.08,2.02.23.7.15,1.31.38,1.85.67.39.21.67.48.82.81s.21.66.15,1c-.05.34-.18.64-.37.91-.2.27-.45.45-.76.53-.31.09-.65.04-1.01-.14-.42-.2-.84-.35-1.26-.46-.41-.11-.85-.16-1.3-.16-.87,0-1.6.16-2.19.48-.59.33-1.03.81-1.33,1.44-.3.63-.45,1.41-.46,2.34s.14,1.72.43,2.36c.29.64.73,1.13,1.31,1.47.58.33,1.31.5,2.18.51.37,0,.76-.04,1.19-.13.42-.09.84-.23,1.25-.43.42-.18.8-.23,1.13-.14.33.09.6.26.8.51s.33.55.39.88c.06.33,0,.66-.14.98s-.41.58-.78.78c-.49.29-1.11.52-1.83.69-.73.17-1.45.25-2.17.24Z"/>
        <path class="cls-3" d="M33.03,253.85c-.44,0-.8-.11-1.1-.31-.3-.21-.48-.49-.54-.85-.07-.36,0-.76.2-1.21l5.32-11.3c.26-.55.57-.95.95-1.2s.8-.38,1.28-.37.9.13,1.26.39.67.66.94,1.21l5.2,11.36c.22.45.3.86.24,1.23-.07.37-.24.65-.53.84-.29.19-.65.29-1.07.29-.56,0-1-.13-1.3-.39s-.57-.67-.81-1.23l-1.13-2.69,1.47,1.09-8.71-.05,1.51-1.07-1.16,2.68c-.26.56-.52.97-.79,1.22s-.68.38-1.23.37ZM39.07,242.85l-2.48,5.84-.59-1.02,6.15.03-.6,1.01-2.44-5.87h-.04Z"/>
        <path class="cls-3" d="M59.98,253.99c-.62,0-1.1-.18-1.43-.53s-.5-.84-.5-1.47l.05-9.94-3.89-.02v2.43c-.02,1.09-.11,2.09-.28,3-.17.92-.42,1.75-.75,2.51s-.73,1.44-1.22,2.04c-.48.6-1.03,1.12-1.64,1.56-.42.31-.86.42-1.31.34-.45-.08-.84-.33-1.18-.76-.32-.44-.43-.88-.33-1.31.1-.44.36-.82.79-1.16.42-.33.78-.73,1.07-1.19s.53-.98.73-1.58c.2-.6.33-1.27.42-2.02s.14-1.57.14-2.47v-2.58c.02-.65.19-1.14.54-1.49s.84-.51,1.49-.51l7.29.04c.65,0,1.15.18,1.5.53.35.35.52.85.52,1.49l-.06,11.1c0,.63-.18,1.12-.52,1.47-.34.34-.82.51-1.44.51Z"/>
        <path class="cls-3" d="M65.33,254.02c-.44,0-.8-.11-1.1-.31-.3-.21-.48-.49-.54-.85-.07-.36,0-.76.2-1.21l5.32-11.3c.26-.55.57-.95.95-1.2s.8-.38,1.28-.37.9.13,1.26.39.67.66.94,1.21l5.2,11.36c.22.45.3.86.24,1.23-.07.37-.24.65-.53.84-.29.19-.65.29-1.07.29-.56,0-1-.13-1.3-.39s-.57-.67-.81-1.23l-1.13-2.69,1.47,1.09-8.71-.05,1.51-1.07-1.16,2.68c-.26.56-.52.97-.79,1.22s-.68.38-1.23.37ZM71.37,243.02l-2.48,5.84-.59-1.02,6.15.03-.6,1.01-2.44-5.87h-.04Z"/>
        <path class="cls-3" d="M82.56,254.11c-.56,0-1-.16-1.3-.47s-.45-.75-.45-1.31l.06-11.73c0-.58.17-1.02.49-1.32s.78-.45,1.38-.45c.49,0,.88.1,1.17.29s.55.51.79.95l4.5,8.18h-.74s4.57-8.14,4.57-8.14c.26-.44.53-.75.82-.94s.68-.28,1.17-.28c.56,0,1,.16,1.3.46s.45.75.45,1.32l-.13,25.4c0,.56-.15,1-.45,1.31-.3.31-.74.46-1.31.46s-1-.16-1.3-.47c-.3-.31-.45-.75-.45-1.31l.11-20.94h.45s-3.44,5.91-3.44,5.91c-.2.31-.41.54-.63.69s-.51.23-.88.23-.64-.08-.87-.24-.43-.39-.61-.7l-3.39-5.96h.49s-.04,7.3-.04,7.3c0,.56-.15,1-.45,1.31-.3.31-.74.46-1.31.46Z"/>
        <g>
          <path class="cls-3" d="M26.48,262.8c-.01,2.27-1.83,3.84-4.33,3.83s-4.29-1.62-4.28-3.89c.01-2.29,1.81-3.87,4.33-3.86s4.29,1.62,4.28,3.92ZM19.45,272.85l.03-5.12h2.73s-.02,3.04-.02,3.04l8.15.04v2.1s-10.89-.06-10.89-.06ZM20.54,262.77c0,.98.66,1.58,1.62,1.59s1.67-.59,1.68-1.59-.73-1.64-1.64-1.64c-.98,0-1.65.61-1.66,1.64ZM30.08,264.21l-.03,4.83h-2.66s.06-11.17.06-11.17h2.66s-.02,4.15-.02,4.15h1.91s-.01,2.19-.01,2.19h-1.91Z"/>
          <path class="cls-3" d="M41.7,266.37c-2.01.35-4.97.47-6.62.46-.52,0-1.01-.02-1.55-.02l.04-8.11h2.68s-.03,5.93-.03,5.93h.46c1.38,0,3.42-.1,4.71-.37l.3,2.11ZM40.3,273.25c-3.32-.02-5.36-1.23-5.35-3.02s2.06-3,5.38-2.98,5.42,1.2,5.41,3.04c0,1.79-2.04,2.98-5.45,2.96ZM37.81,270.25c0,.62.92.98,2.5.99,1.67,0,2.6-.35,2.6-.97,0-.67-.92-1.04-2.59-1.04-1.58,0-2.51.35-2.51,1.02ZM43.09,267.17l.02-3.45-3.37-.02v-1.91s3.38.02,3.38.02v-.79s-3.36-.02-3.36-.02v-1.91s3.38.02,3.38.02v-1.15s2.67.01,2.67.01l-.05,9.21h-2.66Z"/>
          <path class="cls-3" d="M47.48,263.68v-2.08s8.95.05,8.95.05v2.08s-8.95-.05-8.95-.05ZM52.01,270.97c-2.1-.01-3.76-1.32-3.75-3.39s1.68-3.34,3.78-3.33,3.82,1.34,3.81,3.37-1.74,3.36-3.85,3.35ZM49.79,260.82v-2.1s4.62.02,4.62.02v2.1s-4.62-.02-4.62-.02ZM52.03,266.27c-.79,0-1.39.51-1.4,1.33s.59,1.33,1.39,1.33,1.45-.49,1.45-1.32-.63-1.34-1.44-1.35ZM59.82,266.29l-.04,7.22h-2.68s.08-15.48.08-15.48h2.68s-.03,6.06-.03,6.06h1.89s-.01,2.21-.01,2.21h-1.89Z"/>
          <path class="cls-3" d="M68.67,270.05c-.82-.45-2.07-1.82-2.41-2.97-.35,1.25-1.37,2.62-2.68,3.42l-1.54-2c2.1-1.28,2.99-3.58,3.01-6.7v-2.42s2.61.01,2.61.01v2.27c-.03,3.35.73,5.23,2.46,6.27l-1.46,2.12ZM70.12,272.94l.04-7.54h-1.62s.01-2.28.01-2.28h1.62s.03-4.77.03-4.77h2.42s-.08,14.6-.08,14.6h-2.42ZM73.24,273.58l.08-15.47h2.53s-.08,15.48-.08,15.48h-2.53Z"/>
          <path class="cls-3" d="M77.27,271.86v-2.17s2.78.01,2.78.01v-2.23s2.73.15,2.73.15v2.1s2.98.02,2.98.02v-2.1s2.71-.12,2.71-.12v2.23s2.81.01,2.81.01v2.17s-14-.07-14-.07ZM84.29,267.28c-3.54-.02-5.87-1.85-5.85-4.29.01-2.41,2.36-4.22,5.9-4.2,3.56.02,5.87,1.85,5.85,4.26s-2.32,4.25-5.9,4.23ZM84.32,260.94c-1.86,0-3.08.79-3.09,2.1s1.21,2.1,3.07,2.11,3.08-.79,3.09-2.08-1.21-2.12-3.07-2.13Z"/>
        </g>
        <path class="cls-3" d="M94.73,273.7c-.57,0-1.02-.18-1.35-.52-.33-.34-.5-.79-.49-1.35s.17-.98.51-1.31c.34-.33.79-.5,1.36-.49s1.05.17,1.37.51.48.78.48,1.32-.17,1-.49,1.34-.78.51-1.37.5Z"/>
      </g>
    </g>
    <g id="Greeting-2" data-name="Greeting">
      <g>
        <path class="cls-3" d="M117.97,76.92c0,.72-.21,1.27-.61,1.66s-.97.58-1.7.58l-29.24-.15c-.75,0-1.32-.2-1.71-.6-.39-.39-.58-.95-.58-1.67s.2-1.29.59-1.67c.39-.38.97-.57,1.72-.57l4.58.02.04-7.12-4.58-.02c-.75,0-1.32-.2-1.71-.59-.39-.38-.58-.94-.58-1.68s.2-1.27.59-1.65c.39-.38.97-.57,1.72-.56l13.1.07c.73,0,1.3.2,1.7.58.4.39.6.94.59,1.66s-.21,1.29-.61,1.67-.97.57-1.7.57l-4.82-.03-.04,7.12,20.97.11c.73,0,1.3.2,1.7.57s.6.94.59,1.69Z"/>
        <path class="cls-3" d="M101.71,57.49c0,.77-.21,1.35-.61,1.75s-.98.59-1.73.59l-12.6-.07c-.75,0-1.33-.21-1.72-.61-.4-.4-.59-.99-.59-1.75l.04-8.3c0-.59.15-1.03.45-1.32s.72-.44,1.28-.43,1.01.15,1.31.45c.3.3.45.74.45,1.32l-.03,6.34,3.28.02.03-5.8c0-.57.15-1.01.45-1.31.3-.3.73-.45,1.3-.45s1,.16,1.3.46c.29.3.44.74.43,1.31l-.03,5.8,3.55.02.03-6.34c0-.59.16-1.03.46-1.32.31-.29.73-.44,1.29-.43s1,.15,1.3.45.44.74.43,1.32l-.04,8.3Z"/>
        <path class="cls-3" d="M101.79,42.54c0,.72-.21,1.28-.61,1.67s-.96.59-1.68.59l-12.73-.07c-.73,0-1.3-.2-1.69-.6s-.58-.95-.58-1.67.2-1.29.59-1.67c.39-.38.96-.57,1.69-.57l11.26.06.03-5.97c0-.62.17-1.1.49-1.43s.78-.5,1.39-.49,1.07.17,1.39.51c.33.34.49.82.48,1.43l-.04,8.2Z"/>
        <path class="cls-3" d="M101.87,28.22c0,.72-.21,1.28-.61,1.67s-.96.59-1.68.59l-12.73-.07c-.73,0-1.3-.2-1.69-.6s-.58-.95-.58-1.67.2-1.29.59-1.67c.39-.38.96-.57,1.69-.57l11.26.06.03-5.97c0-.62.17-1.1.49-1.43s.78-.5,1.39-.49,1.07.17,1.39.51c.33.34.49.82.48,1.43l-.04,8.2Z"/>
        <path class="cls-3" d="M102.24,8.81c0,1.75-.39,3.28-1.14,4.6-.75,1.32-1.8,2.34-3.14,3.06-1.34.72-2.9,1.07-4.68,1.07-1.34,0-2.55-.22-3.64-.64-1.09-.42-2.03-1.02-2.81-1.8-.78-.78-1.38-1.71-1.79-2.79-.41-1.08-.61-2.27-.61-3.58,0-1.74.39-3.27,1.13-4.58.74-1.31,1.78-2.33,3.11-3.06C90.01.35,91.58,0,93.37,0c1.34,0,2.55.22,3.64.64s2.03,1.02,2.82,1.8,1.38,1.71,1.8,2.79c.41,1.08.61,2.27.61,3.58ZM98.47,8.79c0-.87-.2-1.6-.6-2.21-.41-.6-.99-1.07-1.76-1.4-.76-.33-1.68-.5-2.76-.5-1.62,0-2.87.34-3.78,1.06-.9.71-1.35,1.71-1.36,3,0,.85.19,1.58.59,2.2s.97,1.09,1.73,1.41c.76.33,1.68.5,2.77.5,1.62,0,2.88-.34,3.79-1.06.91-.71,1.37-1.72,1.38-3Z"/>
        <path class="cls-3" d="M118.05,69.44c0,.51-.15.89-.43,1.17s-.68.41-1.2.41l-9.05-.05c-.53,0-.93-.15-1.21-.43-.28-.28-.42-.69-.42-1.23l.04-7.91c0-.54.14-.95.43-1.23s.69-.42,1.22-.42l9.05.05c.52,0,.92.14,1.19.41.28.27.42.67.42,1.18s-.15.9-.43,1.17-.68.41-1.2.41l-8.1-.04-.03,4.88,8.1.04c.52,0,.92.14,1.19.4s.42.66.42,1.19Z"/>
        <path class="cls-3" d="M118.12,56.01c0,.51-.15.89-.43,1.17s-.68.41-1.18.41l-9.1-.05c-.52,0-.91-.15-1.19-.43-.27-.28-.41-.68-.41-1.18l.02-4.24c0-1.38.37-2.44,1.08-3.19.71-.75,1.69-1.12,2.93-1.11s2.21.39,2.92,1.14,1.05,1.82,1.04,3.2v2.67s2.73.01,2.73.01c.51,0,.9.14,1.18.4s.42.66.42,1.19ZM111.36,54.39v-2.12c.01-.6-.11-1.06-.37-1.38-.26-.32-.64-.49-1.16-.49s-.92.16-1.17.48-.38.78-.39,1.38v2.12s3.09.02,3.09.02Z"/>
        <path class="cls-3" d="M118.18,44.57c0,.21-.04.4-.11.57-.07.17-.17.32-.3.44-.13.12-.3.21-.49.27-.2.06-.42.09-.67.09l-9.41-.05c-.48,0-.85-.13-1.1-.39-.25-.25-.38-.62-.37-1.1s.13-.85.38-1.09.62-.37,1.1-.36l6.24.03v.48s-6.8-5.5-6.8-5.5c-.32-.25-.55-.49-.68-.72-.14-.22-.2-.53-.2-.92,0-.26.06-.49.18-.68s.28-.34.49-.44c.21-.1.46-.15.75-.15l9.55.05c.49,0,.87.13,1.12.38s.38.61.37,1.1-.13.85-.38,1.09c-.25.25-.63.37-1.12.36l-6.24-.03v-.46s6.82,5.48,6.82,5.48c.31.25.53.49.68.7.14.21.21.5.21.85Z"/>
        <path class="cls-3" d="M118.1,31.22c0,.54-.15.95-.43,1.23s-.69.42-1.22.42l-8.88-.05c-.53,0-.93-.15-1.21-.43-.28-.28-.42-.69-.42-1.23l.02-4.21c0-.87.14-1.62.4-2.23.26-.61.63-1.08,1.1-1.4.47-.32,1.03-.48,1.66-.47.71,0,1.32.21,1.82.62.5.41.85.97,1.02,1.67h-.28c.15-.83.49-1.47,1.01-1.92.52-.45,1.18-.68,1.99-.67,1.07,0,1.91.39,2.52,1.16s.91,1.81.91,3.13l-.02,4.38ZM110.78,29.8v-2.26c.01-.57-.09-1-.29-1.27-.21-.27-.52-.41-.95-.41s-.74.13-.94.4c-.2.27-.3.69-.31,1.27v2.26s2.49.01,2.49.01ZM115.78,29.83v-2.57c.02-.59-.09-1.02-.32-1.29-.22-.27-.56-.41-1.01-.41s-.78.13-1,.4c-.22.27-.33.7-.33,1.28v2.57s2.66.01,2.66.01Z"/>
        <path class="cls-3" d="M118.16,19.12c0,.54-.15.95-.43,1.23s-.69.42-1.22.42l-8.88-.05c-.53,0-.93-.15-1.21-.43-.28-.28-.42-.69-.42-1.23l.03-5.84c0-.41.11-.72.31-.93s.51-.31.9-.31.71.11.92.31c.21.21.32.52.31.93l-.02,4.46h2.31s.02-4.07.02-4.07c0-.4.11-.71.31-.92.21-.21.51-.32.92-.32s.71.11.91.32c.21.21.31.52.3.92l-.02,4.08h2.5s.02-4.45.02-4.45c0-.41.11-.72.32-.93.21-.21.52-.31.91-.31s.71.11.91.31.31.52.3.93l-.03,5.84Z"/>
        <path class="cls-3" d="M118.39,5.66c0,.51-.15.89-.43,1.17s-.68.41-1.18.41l-8.12-.04v2.71c-.02.43-.13.75-.36.97s-.54.33-.96.33-.75-.12-.96-.34c-.22-.23-.32-.55-.32-.98l.04-8.58c0-.43.11-.75.33-.97.22-.22.54-.33.97-.33s.73.11.95.34c.22.23.33.55.33.98v2.71s8.1.04,8.1.04c.51,0,.9.14,1.18.4s.42.66.42,1.19Z"/>
        <path class="cls-3" d="M137.52,71.56c0,1.65-.33,3.06-.97,4.24-.64,1.18-1.54,2.08-2.7,2.7-1.16.62-2.51.93-4.06.92-1.15,0-2.2-.19-3.15-.56-.94-.36-1.75-.89-2.42-1.58s-1.19-1.52-1.54-2.5c-.35-.98-.53-2.09-.52-3.31,0-.65.08-1.32.23-2.02.15-.7.38-1.31.67-1.85.21-.39.48-.67.81-.82s.66-.21,1-.15c.34.05.64.18.91.37.27.2.45.45.53.76.09.31.04.65-.14,1.01-.2.42-.35.84-.46,1.26-.11.41-.16.85-.16,1.3,0,.87.16,1.6.48,2.19.33.59.81,1.03,1.44,1.33.63.3,1.41.45,2.34.46s1.72-.14,2.36-.43c.64-.29,1.13-.73,1.47-1.31.33-.58.5-1.31.51-2.18,0-.37-.04-.76-.13-1.19-.09-.42-.23-.84-.43-1.25-.18-.42-.23-.8-.14-1.13.09-.33.26-.6.51-.8s.55-.33.88-.39c.33-.06.66,0,.98.14s.58.41.78.78c.29.49.52,1.11.69,1.83.17.73.25,1.45.24,2.17Z"/>
        <path class="cls-3" d="M137.52,64.1c0,.44-.11.8-.31,1.1-.21.3-.49.48-.85.54-.36.07-.76,0-1.21-.2l-11.3-5.32c-.55-.26-.95-.57-1.2-.95s-.38-.8-.37-1.28.13-.9.39-1.26.66-.67,1.21-.94l11.36-5.2c.45-.22.86-.3,1.23-.24.37.07.65.24.84.53.19.29.29.65.29,1.07,0,.56-.13,1-.39,1.3s-.67.57-1.23.81l-2.69,1.13,1.09-1.47-.05,8.71-1.07-1.51,2.68,1.16c.56.26.97.52,1.22.79s.38.68.37,1.23ZM126.52,58.06l5.84,2.48-1.02.59.03-6.15,1.01.6-5.87,2.44v.04Z"/>
        <path class="cls-3" d="M137.66,37.15c0,.62-.18,1.1-.53,1.43s-.84.5-1.47.5l-9.94-.05-.02,3.89h2.43c1.09.02,2.09.11,3,.28.92.17,1.75.42,2.51.75s1.44.73,2.04,1.22c.6.48,1.12,1.03,1.56,1.64.31.42.42.86.34,1.31-.08.45-.33.84-.76,1.18-.44.32-.88.43-1.31.33-.44-.1-.82-.36-1.16-.79-.33-.42-.73-.78-1.19-1.07s-.98-.53-1.58-.73c-.6-.2-1.27-.33-2.02-.42s-1.57-.14-2.47-.14h-2.58c-.65-.02-1.14-.19-1.49-.54s-.51-.84-.51-1.49l.04-7.29c0-.65.18-1.15.53-1.5.35-.35.85-.52,1.49-.52l11.1.06c.63,0,1.12.18,1.47.52.34.34.51.82.51,1.44Z"/>
        <path class="cls-3" d="M137.69,31.8c0,.44-.11.8-.31,1.1-.21.3-.49.48-.85.54-.36.07-.76,0-1.21-.2l-11.3-5.32c-.55-.26-.95-.57-1.2-.95s-.38-.8-.37-1.28.13-.9.39-1.26.66-.67,1.21-.94l11.36-5.2c.45-.22.86-.3,1.23-.24.37.07.65.24.84.53.19.29.29.65.29,1.07,0,.56-.13,1-.39,1.3s-.67.57-1.23.81l-2.69,1.13,1.09-1.47-.05,8.71-1.07-1.51,2.68,1.16c.56.26.97.52,1.22.79s.38.68.37,1.23ZM126.69,25.76l5.84,2.48-1.02.59.03-6.15,1.01.6-5.87,2.44v.04Z"/>
        <path class="cls-3" d="M137.78,14.57c0,.56-.16,1-.47,1.3s-.75.45-1.31.45l-11.73-.06c-.58,0-1.02-.17-1.32-.49s-.45-.78-.45-1.38c0-.49.1-.88.29-1.17s.51-.55.95-.79l8.18-4.5v.74s-8.14-4.57-8.14-4.57c-.44-.26-.75-.53-.94-.82s-.28-.68-.28-1.17c0-.56.16-1,.46-1.3s.75-.45,1.32-.45l25.4.13c.56,0,1,.15,1.31.45.31.3.46.74.46,1.31s-.16,1-.47,1.3c-.31.3-.75.45-1.31.45l-20.94-.11v-.45s5.91,3.44,5.91,3.44c.31.2.54.41.69.63s.23.51.23.88-.08.64-.24.87-.39.43-.7.61l-5.96,3.39v-.49s7.3.04,7.3.04c.56,0,1,.15,1.31.45.31.3.46.74.46,1.31Z"/>
        <g>
          <path class="cls-3" d="M146.47,70.64c2.27.01,3.84,1.83,3.83,4.33-.01,2.51-1.62,4.29-3.89,4.28-2.29-.01-3.87-1.81-3.86-4.33s1.62-4.29,3.92-4.28ZM156.52,77.67l-5.12-.03v-2.73s3.04.02,3.04.02l.04-8.15h2.1s-.06,10.89-.06,10.89ZM146.44,76.59c.98,0,1.58-.66,1.59-1.62s-.59-1.67-1.59-1.68-1.64.73-1.64,1.64c0,.98.61,1.65,1.64,1.66ZM147.88,67.04l4.83.03v2.66s-11.17-.06-11.17-.06v-2.66s4.15.02,4.15.02v-1.91s2.19.01,2.19.01v1.91Z"/>
          <path class="cls-3" d="M150.03,55.43c.35,2.01.47,4.97.46,6.62,0,.52-.02,1.01-.02,1.55l-8.11-.04v-2.68s5.93.03,5.93.03v-.46c0-1.38-.1-3.42-.37-4.71l2.11-.3ZM156.92,56.82c-.02,3.32-1.23,5.36-3.02,5.35s-3-2.06-2.98-5.38,1.2-5.42,3.04-5.41c1.79,0,2.98,2.04,2.96,5.45ZM153.92,59.32c.62,0,.98-.92.99-2.5,0-1.67-.35-2.6-.97-2.6-.67,0-1.04.92-1.04,2.59,0,1.58.35,2.51,1.02,2.51ZM150.83,54.04l-3.45-.02-.02,3.37h-1.91s.02-3.38.02-3.38h-.79s-.02,3.36-.02,3.36h-1.91s.02-3.38.02-3.38h-1.15s.01-2.67.01-2.67l9.21.05v2.66Z"/>
          <path class="cls-3" d="M147.35,49.65h-2.08s.05-8.95.05-8.95h2.08s-.05,8.95-.05,8.95ZM154.64,45.12c-.01,2.1-1.32,3.76-3.39,3.75s-3.34-1.68-3.33-3.78c.01-2.11,1.34-3.82,3.37-3.81s3.36,1.74,3.35,3.85ZM144.49,47.33h-2.1s.02-4.62.02-4.62h2.1s-.02,4.62-.02,4.62ZM149.93,45.09c0,.79.51,1.39,1.33,1.4s1.33-.59,1.33-1.39-.49-1.45-1.32-1.45-1.34.63-1.35,1.44ZM149.96,37.31l7.22.04v2.68s-15.48-.08-15.48-.08v-2.68s6.06.03,6.06.03v-1.89s2.21.01,2.21.01v1.89Z"/>
          <path class="cls-3" d="M153.72,28.45c-.45.82-1.82,2.07-2.97,2.41,1.25.35,2.62,1.37,3.42,2.68l-2,1.54c-1.28-2.1-3.58-2.99-6.7-3.01h-2.42s.01-2.61.01-2.61h2.27c3.35.03,5.23-.73,6.27-2.46l2.12,1.46ZM156.61,27.01l-7.54-.04v1.62s-2.28-.01-2.28-.01v-1.62s-4.77-.03-4.77-.03v-2.42s14.6.08,14.6.08v2.42ZM157.25,23.88l-15.47-.08v-2.53s15.48.08,15.48.08v2.53Z"/>
          <path class="cls-3" d="M155.53,19.86h-2.17s.01-2.78.01-2.78h-2.23s.15-2.73.15-2.73h2.1s.02-2.98.02-2.98h-2.1s-.12-2.71-.12-2.71h2.23s.01-2.81.01-2.81h2.17s-.07,14-.07,14ZM150.95,12.84c-.02,3.54-1.85,5.87-4.29,5.85-2.41-.01-4.22-2.36-4.2-5.9.02-3.56,1.85-5.87,4.26-5.85s4.25,2.32,4.23,5.9ZM144.6,12.81c0,1.86.79,3.08,2.1,3.09s2.1-1.21,2.11-3.07-.79-3.08-2.08-3.09-2.12,1.21-2.13,3.07Z"/>
        </g>
        <path class="cls-3" d="M157.36,2.4c0,.57-.18,1.02-.52,1.35-.34.33-.79.5-1.35.49s-.98-.17-1.31-.51c-.33-.34-.5-.79-.49-1.36s.17-1.05.51-1.37.78-.48,1.32-.48,1,.17,1.34.49.51.78.5,1.37Z"/>
      </g>
    </g>
    <g>
      <path class="cls-1" d="M202.63,288.9c-.23,0-.4-.06-.52-.19-.12-.13-.18-.31-.18-.53v-6.48c0-.23.06-.41.18-.54.12-.12.29-.19.52-.19s.4.06.52.19c.12.12.18.3.18.54v6.48c0,.23-.06.41-.18.53-.12.13-.29.19-.53.19Z"/>
      <path class="cls-1" d="M205.73,283.76c-.09.12-.2.18-.3.2-.11.01-.2,0-.28-.06-.08-.06-.12-.14-.13-.24,0-.11.04-.22.14-.35.15-.18.25-.37.3-.55.05-.18.08-.34.08-.48l.06.36c-.26,0-.46-.07-.62-.22-.16-.15-.24-.34-.24-.59s.07-.44.22-.59c.15-.15.34-.23.59-.23s.46.09.6.26c.15.17.22.42.22.74,0,.18-.02.36-.05.54-.03.19-.1.38-.19.58-.09.2-.23.41-.4.62Z"/>
      <path class="cls-1" d="M208.33,288.9c-.22,0-.39-.06-.51-.18-.12-.12-.18-.3-.18-.52v-4.16c0-.23.06-.4.18-.52s.28-.18.5-.18.38.06.5.18c.12.12.18.29.18.52v.8l-.12-.33c.15-.37.37-.66.68-.87.31-.21.67-.32,1.1-.32s.79.1,1.07.31c.28.21.47.52.58.95h-.15c.15-.39.39-.7.73-.92s.73-.33,1.17-.33c.41,0,.75.08,1.02.24.27.16.47.41.6.73.13.33.2.74.2,1.24v2.66c0,.23-.06.4-.18.52-.12.12-.29.18-.51.18s-.39-.06-.51-.18c-.12-.12-.18-.3-.18-.52v-2.61c0-.41-.07-.71-.2-.9-.14-.19-.36-.29-.69-.29-.36,0-.64.13-.85.38s-.31.6-.31,1.05v2.36c0,.23-.06.4-.18.52-.12.12-.29.18-.51.18s-.39-.06-.51-.18c-.12-.12-.18-.3-.18-.52v-2.61c0-.41-.07-.71-.2-.9-.14-.19-.36-.29-.68-.29-.36,0-.64.13-.85.38s-.31.6-.31,1.05v2.36c0,.47-.23.7-.69.7Z"/>
      <path class="cls-1" d="M220.46,288.9c-.18,0-.32-.04-.42-.12-.11-.08-.17-.19-.19-.32-.02-.14,0-.29.08-.46l2.9-6.44c.09-.21.21-.36.35-.46s.29-.14.47-.14.32.05.46.14.25.24.35.46l2.92,6.44c.08.17.11.32.09.46-.02.14-.08.25-.19.32s-.24.12-.41.12c-.21,0-.37-.05-.48-.15-.11-.1-.21-.25-.3-.46l-.71-1.66.59.38h-4.64l.59-.38-.7,1.66c-.1.21-.19.37-.3.46-.1.09-.25.14-.44.14ZM223.62,282.59l-1.54,3.66-.29-.35h3.67l-.27.35-1.55-3.66h-.02Z"/>
      <path class="cls-1" d="M229.12,288.9c-.22,0-.39-.06-.51-.18-.12-.12-.18-.3-.18-.52v-4.16c0-.23.06-.4.18-.52s.28-.18.5-.18.38.06.5.18.18.29.18.52v.75l-.12-.28c.16-.39.41-.68.75-.89.34-.2.73-.3,1.16-.3s.79.08,1.07.24c.28.16.49.41.63.73.14.33.21.74.21,1.24v2.66c0,.23-.06.4-.18.52-.12.12-.29.18-.51.18s-.39-.06-.51-.18c-.12-.12-.18-.3-.18-.52v-2.6c0-.42-.08-.72-.24-.91-.16-.19-.4-.29-.73-.29-.4,0-.72.13-.96.38s-.36.59-.36,1.01v2.41c0,.47-.23.7-.69.7Z"/>
      <path class="cls-1" d="M235.55,282.34c-.26,0-.46-.06-.6-.19-.14-.13-.21-.31-.21-.53s.07-.41.21-.54c.14-.12.34-.19.6-.19s.46.06.6.19c.14.12.21.3.21.54s-.07.41-.21.53c-.14.13-.34.19-.6.19ZM235.55,288.89c-.22,0-.39-.07-.51-.2-.12-.13-.18-.31-.18-.55v-4.04c0-.24.06-.43.18-.56.12-.13.29-.19.51-.19s.39.06.51.19c.12.13.18.31.18.56v4.04c0,.24-.06.42-.18.55-.12.13-.29.2-.52.2Z"/>
      <path class="cls-1" d="M239.64,288.93c-.32,0-.65-.03-1-.1-.35-.07-.67-.18-.95-.34-.12-.07-.2-.16-.25-.26-.05-.1-.07-.2-.05-.3.01-.1.05-.18.11-.26.06-.07.14-.12.24-.14.1-.02.21,0,.33.06.29.14.57.24.82.29.26.05.51.08.76.08.35,0,.61-.06.79-.18s.26-.28.26-.48c0-.17-.06-.3-.17-.39-.11-.09-.28-.16-.51-.2l-1.1-.21c-.46-.09-.8-.25-1.04-.5-.24-.25-.36-.56-.36-.95,0-.35.1-.66.29-.91s.46-.46.81-.59c.34-.14.74-.21,1.19-.21.32,0,.62.03.91.1.28.07.55.18.82.32.11.06.18.14.23.23.04.1.05.19.03.29-.02.1-.07.19-.13.26-.07.08-.15.12-.25.14-.1.02-.21,0-.33-.06-.23-.12-.45-.2-.65-.25-.21-.05-.41-.08-.6-.08-.36,0-.63.06-.8.19-.17.12-.26.29-.26.5,0,.15.05.28.15.38.1.1.26.17.47.21l1.1.21c.48.09.84.25,1.08.48.25.23.37.55.37.95,0,.54-.21.96-.63,1.26-.42.3-.98.46-1.67.46Z"/>
      <path class="cls-1" d="M244.81,288.93c-.39,0-.74-.08-1.04-.23-.3-.15-.54-.35-.71-.61s-.26-.55-.26-.87c0-.4.1-.71.31-.94.21-.23.54-.4,1-.5.46-.1,1.08-.15,1.86-.15h.55v.79h-.54c-.46,0-.82.02-1.09.07-.27.04-.46.12-.58.23s-.17.25-.17.45c0,.24.08.44.25.59.17.15.4.23.7.23.24,0,.46-.06.64-.17.19-.11.34-.27.45-.47.11-.2.17-.43.17-.68v-1.27c0-.37-.08-.63-.24-.79s-.43-.24-.81-.24c-.21,0-.44.03-.69.08-.25.05-.5.14-.78.26-.14.07-.26.08-.37.05s-.19-.09-.25-.18-.09-.19-.09-.3.03-.22.09-.32.16-.19.3-.24c.34-.14.66-.24.97-.3s.6-.09.85-.09c.53,0,.96.08,1.3.24.34.16.6.41.76.73.17.33.25.75.25,1.26v2.64c0,.23-.05.4-.17.52-.11.12-.27.18-.47.18s-.37-.06-.48-.18c-.11-.12-.17-.3-.17-.52v-.53h.09c-.05.26-.15.48-.3.67-.15.19-.34.33-.57.43-.23.1-.49.15-.78.15Z"/>
      <path class="cls-1" d="M116.25,296.72h2.1v2.87c-.34.11-.67.19-.99.24s-.66.07-1.03.07c-.86,0-1.53-.26-2-.77s-.7-1.23-.7-2.17.26-1.64.79-2.16,1.26-.78,2.18-.78c.6,0,1.16.12,1.7.34l-.33.78c-.46-.21-.93-.32-1.39-.32-.61,0-1.09.19-1.45.57s-.53.91-.53,1.57c0,.7.16,1.23.48,1.59s.78.54,1.38.54c.3,0,.62-.04.97-.11v-1.47h-1.18v-.8Z"/>
      <path class="cls-1" d="M121.82,295.42c.18,0,.34.01.46.04l-.09.86c-.13-.03-.27-.05-.41-.05-.37,0-.67.12-.89.36-.23.24-.34.55-.34.93v2.26h-.92v-4.32h.72l.12.76h.05c.14-.26.33-.46.56-.61.23-.15.48-.23.74-.23Z"/>
      <path class="cls-1" d="M125.78,299.82l-.18-.6h-.03c-.21.26-.42.44-.63.54-.21.1-.48.14-.81.14-.42,0-.76-.11-.99-.34-.24-.23-.36-.55-.36-.97,0-.45.17-.78.5-1.01s.83-.35,1.51-.37l.75-.02v-.23c0-.28-.06-.48-.19-.62s-.33-.21-.6-.21c-.22,0-.43.03-.64.1-.2.07-.4.14-.59.23l-.3-.66c.23-.12.49-.21.77-.28.28-.06.54-.1.79-.1.55,0,.96.12,1.24.36.28.24.42.62.42,1.13v2.91h-.66ZM124.41,299.19c.33,0,.6-.09.8-.28.2-.19.3-.45.3-.78v-.38l-.55.02c-.43.02-.75.09-.94.22s-.29.33-.29.59c0,.19.06.34.17.45s.29.16.52.16Z"/>
      <path class="cls-1" d="M129.91,299.89c-.55,0-.97-.2-1.27-.59h-.05c.04.37.05.59.05.66v1.77h-.92v-6.24h.74c.02.08.06.27.13.58h.05c.29-.44.72-.66,1.29-.66.54,0,.96.2,1.26.59s.45.94.45,1.64-.15,1.26-.46,1.65c-.31.4-.73.59-1.27.59ZM129.69,296.17c-.36,0-.63.11-.8.32-.17.21-.25.55-.25,1.02v.14c0,.53.08.91.25,1.14.17.24.44.35.82.35.32,0,.56-.13.73-.39.17-.26.26-.63.26-1.11s-.08-.85-.26-1.1c-.17-.25-.42-.37-.75-.37Z"/>
      <path class="cls-1" d="M136.5,299.82h-.92v-2.66c0-.33-.07-.58-.2-.75s-.35-.25-.64-.25c-.39,0-.67.12-.85.35s-.27.62-.27,1.16v2.14h-.92v-6.08h.92v1.54c0,.25-.02.51-.05.79h.06c.12-.21.3-.37.52-.48.22-.11.48-.17.78-.17,1.05,0,1.57.53,1.57,1.58v2.82Z"/>
      <path class="cls-1" d="M137.73,294.35c0-.16.04-.29.13-.38.09-.09.22-.13.38-.13s.29.04.38.13c.09.09.13.21.13.38s-.04.28-.13.37-.22.13-.38.13-.29-.04-.38-.13-.13-.21-.13-.37ZM138.7,299.82h-.92v-4.32h.92v4.32Z"/>
      <path class="cls-1" d="M141.75,299.89c-.65,0-1.15-.19-1.49-.57-.34-.38-.51-.93-.51-1.64s.18-1.29.53-1.68.87-.59,1.54-.59c.46,0,.87.08,1.23.25l-.28.74c-.39-.15-.71-.23-.96-.23-.75,0-1.12.5-1.12,1.49,0,.48.09.85.28,1.09.19.24.46.37.82.37.41,0,.8-.1,1.16-.3v.8c-.16.1-.34.17-.53.21-.19.04-.41.06-.68.06Z"/>
      <path class="cls-1" d="M150.79,296.91c0,.94-.26,1.66-.79,2.16-.52.5-1.28.75-2.26.75h-1.6v-5.71h1.77c.91,0,1.62.25,2.12.73.5.49.76,1.18.76,2.07ZM149.81,296.94c0-1.37-.64-2.05-1.92-2.05h-.81v4.14h.66c1.38,0,2.06-.7,2.06-2.09Z"/>
      <path class="cls-1" d="M153.81,299.89c-.67,0-1.2-.2-1.58-.59-.38-.39-.57-.93-.57-1.62s.18-1.26.53-1.66c.35-.4.83-.61,1.45-.61.57,0,1.02.17,1.35.52.33.35.5.82.5,1.43v.5h-2.88c.01.42.13.74.34.97.21.23.51.34.9.34.25,0,.49-.02.71-.07.22-.05.46-.13.71-.24v.75c-.22.11-.45.18-.68.23-.23.04-.49.07-.79.07ZM153.64,296.11c-.29,0-.53.09-.7.28-.18.19-.28.46-.31.81h1.96c0-.36-.09-.63-.26-.81s-.4-.28-.69-.28Z"/>
      <path class="cls-1" d="M159.43,298.58c0,.42-.15.75-.46.97-.31.23-.75.34-1.32.34s-1.04-.09-1.39-.26v-.79c.51.23.98.35,1.42.35.57,0,.85-.17.85-.51,0-.11-.03-.2-.09-.27-.06-.07-.17-.15-.31-.23s-.34-.17-.6-.27c-.5-.19-.83-.38-1.01-.58-.18-.19-.26-.44-.26-.75,0-.37.15-.66.45-.86.3-.2.7-.31,1.22-.31s.99.1,1.44.31l-.3.69c-.47-.19-.86-.29-1.18-.29-.48,0-.73.14-.73.41,0,.14.06.25.19.34s.4.22.83.39c.36.14.62.26.78.38.16.12.28.25.36.4.08.15.12.33.12.54Z"/>
      <path class="cls-1" d="M160.37,294.35c0-.16.04-.29.13-.38.09-.09.22-.13.38-.13s.29.04.38.13c.09.09.13.21.13.38s-.04.28-.13.37-.22.13-.38.13-.29-.04-.38-.13-.13-.21-.13-.37ZM161.34,299.82h-.92v-4.32h.92v4.32Z"/>
      <path class="cls-1" d="M166.3,295.49v.5l-.74.14c.07.09.12.2.17.34s.07.27.07.42c0,.45-.15.8-.46,1.05-.31.26-.73.38-1.27.38-.14,0-.26,0-.38-.03-.2.12-.3.27-.3.43,0,.1.05.17.14.22.09.05.26.07.51.07h.75c.48,0,.84.1,1.09.3s.37.5.37.88c0,.49-.2.87-.61,1.13s-.99.4-1.75.4c-.59,0-1.04-.1-1.35-.31-.31-.21-.46-.5-.46-.89,0-.27.08-.49.25-.67.17-.18.4-.31.71-.38-.12-.05-.22-.14-.3-.25-.08-.12-.12-.24-.12-.37,0-.16.05-.3.14-.41.09-.11.23-.22.41-.33-.22-.1-.41-.25-.54-.47-.14-.22-.21-.47-.21-.76,0-.47.15-.83.44-1.09s.72-.39,1.26-.39c.12,0,.25,0,.38.03.13.02.24.04.3.05h1.5ZM162.91,300.49c0,.2.09.35.27.46.18.11.43.16.75.16.5,0,.87-.07,1.12-.21.25-.14.37-.33.37-.57,0-.19-.07-.32-.2-.4-.13-.08-.38-.12-.75-.12h-.7c-.26,0-.47.06-.63.19-.16.12-.23.29-.23.5ZM163.3,296.89c0,.27.07.48.21.62.14.15.34.22.6.22.53,0,.8-.28.8-.85,0-.28-.07-.5-.2-.65s-.33-.23-.6-.23-.47.08-.6.23c-.14.15-.21.37-.21.66Z"/>
      <path class="cls-1" d="M170.9,299.82h-.92v-2.66c0-.33-.07-.58-.2-.75s-.35-.25-.64-.25c-.39,0-.67.12-.85.34-.18.23-.27.61-.27,1.15v2.15h-.92v-4.32h.72l.13.57h.05c.13-.21.32-.36.55-.48.24-.11.5-.17.8-.17,1.04,0,1.55.53,1.55,1.58v2.82Z"/>
      <path class="cls-1" d="M174.07,299.89c-.67,0-1.2-.2-1.58-.59-.38-.39-.57-.93-.57-1.62s.18-1.26.53-1.66c.35-.4.83-.61,1.45-.61.57,0,1.02.17,1.35.52.33.35.5.82.5,1.43v.5h-2.88c.01.42.13.74.34.97.21.23.51.34.9.34.25,0,.49-.02.71-.07.22-.05.46-.13.71-.24v.75c-.22.11-.45.18-.68.23-.23.04-.49.07-.79.07ZM173.9,296.11c-.29,0-.53.09-.7.28-.18.19-.28.46-.31.81h1.96c0-.36-.09-.63-.26-.81s-.4-.28-.69-.28Z"/>
      <path class="cls-1" d="M178.98,295.42c.18,0,.34.01.46.04l-.09.86c-.13-.03-.27-.05-.41-.05-.37,0-.67.12-.89.36-.23.24-.34.55-.34.93v2.26h-.92v-4.32h.72l.12.76h.05c.14-.26.33-.46.56-.61.23-.15.48-.23.74-.23Z"/>
      <path class="cls-1" d="M182.04,298.3c0-.34.08-.64.25-.89s.47-.51.9-.76c-.25-.29-.42-.53-.51-.73s-.13-.41-.13-.62c0-.4.14-.71.42-.94.28-.23.66-.34,1.14-.34s.82.11,1.09.33.39.52.39.9c0,.3-.09.57-.26.81s-.47.48-.88.73l1.35,1.3c.21-.28.39-.69.53-1.23h.95c-.18.74-.47,1.34-.88,1.81l1.18,1.14h-1.18l-.58-.57c-.27.21-.55.38-.85.48-.3.11-.63.16-1,.16-.6,0-1.07-.14-1.41-.43-.34-.28-.51-.67-.51-1.16ZM184.01,299.1c.48,0,.88-.14,1.22-.42l-1.5-1.47c-.28.18-.47.34-.57.5-.1.16-.16.33-.16.53,0,.26.09.46.27.62s.42.24.73.24ZM183.42,295.33c0,.16.04.32.13.46.09.15.21.3.37.46.29-.17.5-.32.62-.47s.18-.31.18-.49c0-.17-.06-.3-.17-.41s-.26-.15-.45-.15c-.21,0-.37.05-.49.16s-.18.25-.18.42Z"/>
      <path class="cls-1" d="M194.89,294.1v3.7c0,.42-.09.79-.27,1.11s-.44.56-.79.73c-.34.17-.75.26-1.23.26-.71,0-1.26-.19-1.65-.56s-.59-.89-.59-1.55v-3.68h.94v3.61c0,.47.11.82.33,1.04.22.22.55.34,1.01.34.88,0,1.32-.46,1.32-1.39v-3.61h.93Z"/>
      <path class="cls-1" d="M200.56,299.82h-1.07l-1.43-2.34-1.44,2.34h-1l1.89-2.96-1.77-2.75h1.04l1.32,2.16,1.32-2.16h1.01l-1.79,2.77,1.92,2.95Z"/>
      <path class="cls-1" d="M203.63,294.1l-2.12,5.71h-.87l2.13-5.71h.86Z"/>
      <path class="cls-1" d="M208.93,294.1v3.7c0,.42-.09.79-.27,1.11s-.44.56-.79.73c-.34.17-.75.26-1.23.26-.71,0-1.26-.19-1.65-.56s-.59-.89-.59-1.55v-3.68h.94v3.61c0,.47.11.82.33,1.04.22.22.55.34,1.01.34.88,0,1.32-.46,1.32-1.39v-3.61h.93Z"/>
      <path class="cls-1" d="M210.39,299.82v-5.71h.93v5.71h-.93Z"/>
      <path class="cls-1" d="M219.55,296.91c0,.94-.26,1.66-.79,2.16-.52.5-1.28.75-2.26.75h-1.6v-5.71h1.77c.91,0,1.62.25,2.12.73.5.49.76,1.18.76,2.07ZM218.57,296.94c0-1.37-.64-2.05-1.92-2.05h-.81v4.14h.66c1.38,0,2.06-.7,2.06-2.09Z"/>
      <path class="cls-1" d="M222.57,299.89c-.67,0-1.2-.2-1.58-.59-.38-.39-.57-.93-.57-1.62s.18-1.26.53-1.66c.35-.4.83-.61,1.45-.61.57,0,1.02.17,1.35.52.33.35.5.82.5,1.43v.5h-2.88c.01.42.13.74.34.97.21.23.51.34.9.34.25,0,.49-.02.71-.07.22-.05.46-.13.71-.24v.75c-.22.11-.45.18-.68.23-.23.04-.49.07-.79.07ZM222.4,296.11c-.29,0-.53.09-.7.28-.18.19-.28.46-.31.81h1.96c0-.36-.09-.63-.26-.81s-.4-.28-.69-.28Z"/>
      <path class="cls-1" d="M228.19,298.58c0,.42-.15.75-.46.97-.31.23-.75.34-1.32.34s-1.04-.09-1.39-.26v-.79c.51.23.98.35,1.42.35.57,0,.85-.17.85-.51,0-.11-.03-.2-.09-.27-.06-.07-.17-.15-.31-.23s-.34-.17-.6-.27c-.5-.19-.83-.38-1.01-.58-.18-.19-.26-.44-.26-.75,0-.37.15-.66.45-.86.3-.2.7-.31,1.22-.31s.99.1,1.44.31l-.3.69c-.47-.19-.86-.29-1.18-.29-.48,0-.73.14-.73.41,0,.14.06.25.19.34s.4.22.83.39c.36.14.62.26.78.38.16.12.28.25.36.4.08.15.12.33.12.54Z"/>
      <path class="cls-1" d="M229.13,294.35c0-.16.04-.29.13-.38.09-.09.22-.13.38-.13s.29.04.38.13c.09.09.13.21.13.38s-.04.28-.13.37-.22.13-.38.13-.29-.04-.38-.13-.13-.21-.13-.37ZM230.1,299.82h-.92v-4.32h.92v4.32Z"/>
      <path class="cls-1" d="M235.06,295.49v.5l-.74.14c.07.09.12.2.17.34s.07.27.07.42c0,.45-.15.8-.46,1.05-.31.26-.73.38-1.27.38-.14,0-.26,0-.38-.03-.2.12-.3.27-.3.43,0,.1.05.17.14.22.09.05.26.07.51.07h.75c.48,0,.84.1,1.09.3s.37.5.37.88c0,.49-.2.87-.61,1.13s-.99.4-1.75.4c-.59,0-1.04-.1-1.35-.31-.31-.21-.46-.5-.46-.89,0-.27.08-.49.25-.67.17-.18.4-.31.71-.38-.12-.05-.22-.14-.3-.25-.08-.12-.12-.24-.12-.37,0-.16.05-.3.14-.41.09-.11.23-.22.41-.33-.22-.1-.41-.25-.54-.47-.14-.22-.21-.47-.21-.76,0-.47.15-.83.44-1.09s.72-.39,1.26-.39c.12,0,.25,0,.38.03.13.02.24.04.3.05h1.5ZM231.67,300.49c0,.2.09.35.27.46.18.11.43.16.75.16.5,0,.87-.07,1.12-.21.25-.14.37-.33.37-.57,0-.19-.07-.32-.2-.4-.13-.08-.38-.12-.75-.12h-.7c-.26,0-.47.06-.63.19-.16.12-.23.29-.23.5ZM232.06,296.89c0,.27.07.48.21.62.14.15.34.22.6.22.53,0,.8-.28.8-.85,0-.28-.07-.5-.2-.65s-.33-.23-.6-.23-.47.08-.6.23c-.14.15-.21.37-.21.66Z"/>
      <path class="cls-1" d="M239.67,299.82h-.92v-2.66c0-.33-.07-.58-.2-.75s-.35-.25-.64-.25c-.39,0-.67.12-.85.34-.18.23-.27.61-.27,1.15v2.15h-.92v-4.32h.72l.13.57h.05c.13-.21.32-.36.55-.48.24-.11.5-.17.8-.17,1.04,0,1.55.53,1.55,1.58v2.82Z"/>
      <path class="cls-1" d="M242.83,299.89c-.67,0-1.2-.2-1.58-.59-.38-.39-.57-.93-.57-1.62s.18-1.26.53-1.66c.35-.4.83-.61,1.45-.61.57,0,1.02.17,1.35.52.33.35.5.82.5,1.43v.5h-2.88c.01.42.13.74.34.97.21.23.51.34.9.34.25,0,.49-.02.71-.07.22-.05.46-.13.71-.24v.75c-.22.11-.45.18-.68.23-.23.04-.49.07-.79.07ZM242.66,296.11c-.29,0-.53.09-.7.28-.18.19-.28.46-.31.81h1.96c0-.36-.09-.63-.26-.81s-.4-.28-.69-.28Z"/>
      <path class="cls-1" d="M247.74,295.42c.18,0,.34.01.46.04l-.09.86c-.13-.03-.27-.05-.41-.05-.37,0-.67.12-.89.36-.23.24-.34.55-.34.93v2.26h-.92v-4.32h.72l.12.76h.05c.14-.26.33-.46.56-.61.23-.15.48-.23.74-.23Z"/>
      <path class="cls-1" d="M105.57,307.93c0,.37-.06.71-.18,1.02s-.28.55-.49.72-.46.26-.74.26c-.21,0-.38-.05-.54-.16s-.25-.26-.3-.45h-.05c-.13.2-.29.36-.47.46s-.4.15-.63.15c-.42,0-.76-.14-1-.41s-.37-.64-.37-1.11c0-.54.16-.97.48-1.31.32-.33.76-.5,1.3-.5.2,0,.42.02.66.05s.46.08.64.15l-.09,1.82v.09c0,.42.14.62.41.62.21,0,.37-.13.49-.4s.18-.6.18-1.02c0-.45-.09-.84-.27-1.17-.18-.34-.44-.6-.78-.78-.34-.18-.72-.27-1.16-.27-.55,0-1.04.12-1.45.34-.41.23-.72.56-.94.98s-.32.92-.32,1.48c0,.76.2,1.34.61,1.74s.98.61,1.74.61c.58,0,1.18-.12,1.8-.35v.64c-.55.22-1.14.34-1.79.34-.96,0-1.71-.26-2.25-.78s-.81-1.24-.81-2.17c0-.68.15-1.28.44-1.81.29-.53.7-.94,1.21-1.22s1.1-.42,1.76-.42c.57,0,1.07.12,1.51.35s.78.57,1.03,1,.37.93.37,1.5ZM101.55,308.42c0,.61.24.91.71.91.5,0,.78-.38.82-1.14l.05-.93c-.16-.04-.34-.07-.53-.07-.33,0-.59.11-.78.33-.19.22-.28.52-.28.9Z"/>
      <path class="cls-1" d="M109.37,310.82l-.18-.6h-.03c-.21.26-.42.44-.63.54-.21.1-.48.14-.81.14-.42,0-.76-.11-.99-.34-.24-.23-.36-.55-.36-.97,0-.45.17-.78.5-1.01s.83-.35,1.51-.37l.75-.02v-.23c0-.28-.06-.48-.19-.62s-.33-.21-.6-.21c-.22,0-.43.03-.64.1-.2.07-.4.14-.59.23l-.3-.66c.23-.12.49-.21.77-.28.28-.06.54-.1.79-.1.55,0,.96.12,1.24.36.28.24.42.62.42,1.13v2.91h-.66ZM108,310.19c.33,0,.6-.09.8-.28.2-.19.3-.45.3-.78v-.38l-.55.02c-.43.02-.75.09-.94.22s-.29.33-.29.59c0,.19.06.34.17.45s.29.16.52.16Z"/>
      <path class="cls-1" d="M115.11,310.82h-.92v-2.66c0-.33-.07-.58-.2-.75s-.35-.25-.64-.25c-.39,0-.67.12-.85.34-.18.23-.27.61-.27,1.15v2.15h-.92v-4.32h.72l.13.57h.05c.13-.21.32-.36.55-.48.24-.11.5-.17.8-.17,1.04,0,1.55.53,1.55,1.58v2.82Z"/>
      <path class="cls-1" d="M116.33,305.35c0-.16.04-.29.13-.38.09-.09.22-.13.38-.13s.29.04.38.13c.09.09.13.21.13.38s-.04.28-.13.37-.22.13-.38.13-.29-.04-.38-.13-.13-.21-.13-.37ZM117.3,310.82h-.92v-4.32h.92v4.32Z"/>
      <path class="cls-1" d="M121.52,309.58c0,.42-.15.75-.46.97-.31.23-.75.34-1.32.34s-1.04-.09-1.39-.26v-.79c.51.23.98.35,1.42.35.57,0,.85-.17.85-.51,0-.11-.03-.2-.09-.27-.06-.07-.17-.15-.31-.23s-.34-.17-.6-.27c-.5-.19-.83-.38-1.01-.58-.18-.19-.26-.44-.26-.75,0-.37.15-.66.45-.86.3-.2.7-.31,1.22-.31s.99.1,1.44.31l-.3.69c-.47-.19-.86-.29-1.18-.29-.48,0-.73.14-.73.41,0,.14.06.25.19.34s.4.22.83.39c.36.14.62.26.78.38.16.12.28.25.36.4.08.15.12.33.12.54Z"/>
      <path class="cls-1" d="M125.21,310.82l-.18-.6h-.03c-.21.26-.42.44-.63.54-.21.1-.48.14-.81.14-.42,0-.76-.11-.99-.34-.24-.23-.36-.55-.36-.97,0-.45.17-.78.5-1.01s.83-.35,1.51-.37l.75-.02v-.23c0-.28-.06-.48-.19-.62s-.33-.21-.6-.21c-.22,0-.43.03-.64.1-.2.07-.4.14-.59.23l-.3-.66c.23-.12.49-.21.77-.28.28-.06.54-.1.79-.1.55,0,.96.12,1.24.36.28.24.42.62.42,1.13v2.91h-.66ZM123.85,310.19c.33,0,.6-.09.8-.28.2-.19.3-.45.3-.78v-.38l-.55.02c-.43.02-.75.09-.94.22s-.29.33-.29.59c0,.19.06.34.17.45s.29.16.52.16Z"/>
      <path class="cls-1" d="M128.61,310.89c-.54,0-.96-.2-1.26-.59s-.45-.94-.45-1.64.15-1.26.46-1.65.73-.59,1.27-.59,1,.21,1.3.63h.05c-.04-.31-.07-.55-.07-.73v-1.57h.92v6.08h-.72l-.16-.57h-.04c-.29.43-.73.64-1.29.64ZM128.85,310.15c.38,0,.65-.11.82-.32.17-.21.26-.56.27-1.03v-.13c0-.54-.09-.93-.27-1.16-.18-.23-.45-.34-.83-.34-.32,0-.57.13-.75.39s-.26.63-.26,1.12.08.84.25,1.1c.17.25.42.38.76.38Z"/>
      <path class="cls-1" d="M134.02,310.89c-.67,0-1.2-.2-1.58-.59-.38-.39-.57-.93-.57-1.62s.18-1.26.53-1.66c.35-.4.83-.61,1.45-.61.57,0,1.02.17,1.35.52.33.35.5.82.5,1.43v.5h-2.88c.01.42.13.74.34.97.21.23.51.34.9.34.25,0,.49-.02.71-.07.22-.05.46-.13.71-.24v.75c-.22.11-.45.18-.68.23-.23.04-.49.07-.79.07ZM133.85,307.11c-.29,0-.53.09-.7.28-.18.19-.28.46-.31.81h1.96c0-.36-.09-.63-.26-.81s-.4-.28-.69-.28Z"/>
      <path class="cls-1" d="M139.65,309.58c0,.42-.15.75-.46.97-.31.23-.75.34-1.32.34s-1.04-.09-1.39-.26v-.79c.51.23.98.35,1.42.35.57,0,.85-.17.85-.51,0-.11-.03-.2-.09-.27-.06-.07-.17-.15-.31-.23s-.34-.17-.6-.27c-.5-.19-.83-.38-1.01-.58-.18-.19-.26-.44-.26-.75,0-.37.15-.66.45-.86.3-.2.7-.31,1.22-.31s.99.1,1.44.31l-.3.69c-.47-.19-.86-.29-1.18-.29-.48,0-.73.14-.73.41,0,.14.06.25.19.34s.4.22.83.39c.36.14.62.26.78.38.16.12.28.25.36.4.08.15.12.33.12.54Z"/>
      <path class="cls-1" d="M140.58,305.35c0-.16.04-.29.13-.38.09-.09.22-.13.38-.13s.29.04.38.13c.09.09.13.21.13.38s-.04.28-.13.37-.22.13-.38.13-.29-.04-.38-.13-.13-.21-.13-.37ZM141.56,310.82h-.92v-4.32h.92v4.32Z"/>
      <path class="cls-1" d="M146.52,306.49v.5l-.74.14c.07.09.12.2.17.34s.07.27.07.42c0,.45-.15.8-.46,1.05-.31.26-.73.38-1.27.38-.14,0-.26,0-.38-.03-.2.12-.3.27-.3.43,0,.1.05.17.14.22.09.05.26.07.51.07h.75c.48,0,.84.1,1.09.3s.37.5.37.88c0,.49-.2.87-.61,1.13s-.99.4-1.75.4c-.59,0-1.04-.1-1.35-.31-.31-.21-.46-.5-.46-.89,0-.27.08-.49.25-.67.17-.18.4-.31.71-.38-.12-.05-.22-.14-.3-.25-.08-.12-.12-.24-.12-.37,0-.16.05-.3.14-.41.09-.11.23-.22.41-.33-.22-.1-.41-.25-.54-.47-.14-.22-.21-.47-.21-.76,0-.47.15-.83.44-1.09s.72-.39,1.26-.39c.12,0,.25,0,.38.03.13.02.24.04.3.05h1.5ZM143.12,311.49c0,.2.09.35.27.46.18.11.43.16.75.16.5,0,.87-.07,1.12-.21.25-.14.37-.33.37-.57,0-.19-.07-.32-.2-.4-.13-.08-.38-.12-.75-.12h-.7c-.26,0-.47.06-.63.19-.16.12-.23.29-.23.5ZM143.52,307.89c0,.27.07.48.21.62.14.15.34.22.6.22.53,0,.8-.28.8-.85,0-.28-.07-.5-.2-.65s-.33-.23-.6-.23-.47.08-.6.23c-.14.15-.21.37-.21.66Z"/>
      <path class="cls-1" d="M151.12,310.82h-.92v-2.66c0-.33-.07-.58-.2-.75s-.35-.25-.64-.25c-.39,0-.67.12-.85.34-.18.23-.27.61-.27,1.15v2.15h-.92v-4.32h.72l.13.57h.05c.13-.21.32-.36.55-.48.24-.11.5-.17.8-.17,1.04,0,1.55.53,1.55,1.58v2.82Z"/>
      <path class="cls-1" d="M155.19,312.06h-3.46v-.53h3.46v.53Z"/>
      <path class="cls-1" d="M157.57,310.89c-.65,0-1.15-.19-1.49-.57-.34-.38-.51-.93-.51-1.64s.18-1.29.53-1.68.87-.59,1.54-.59c.46,0,.87.08,1.23.25l-.28.74c-.39-.15-.71-.23-.96-.23-.75,0-1.12.5-1.12,1.49,0,.48.09.85.28,1.09.19.24.46.37.82.37.41,0,.8-.1,1.16-.3v.8c-.16.1-.34.17-.53.21-.19.04-.41.06-.68.06Z"/>
      <path class="cls-1" d="M162.49,310.82l-.18-.6h-.03c-.21.26-.42.44-.63.54-.21.1-.48.14-.81.14-.42,0-.76-.11-.99-.34-.24-.23-.36-.55-.36-.97,0-.45.17-.78.5-1.01s.83-.35,1.51-.37l.75-.02v-.23c0-.28-.06-.48-.19-.62s-.33-.21-.6-.21c-.22,0-.43.03-.64.1-.2.07-.4.14-.59.23l-.3-.66c.23-.12.49-.21.77-.28.28-.06.54-.1.79-.1.55,0,.96.12,1.24.36.28.24.42.62.42,1.13v2.91h-.66ZM161.13,310.19c.33,0,.6-.09.8-.28.2-.19.3-.45.3-.78v-.38l-.55.02c-.43.02-.75.09-.94.22s-.29.33-.29.59c0,.19.06.34.17.45s.29.16.52.16Z"/>
      <path class="cls-1" d="M174.21,310.82l-.56-2.02c-.07-.21-.19-.71-.37-1.49h-.04c-.15.7-.27,1.2-.36,1.5l-.57,2.01h-1.02l-1.21-4.32h.94l.55,2.13c.12.53.21.98.27,1.35h.02c.03-.19.07-.41.12-.65s.1-.43.14-.55l.66-2.27h1.01l.64,2.27c.04.13.09.32.15.59.06.26.09.47.1.61h.03c.04-.32.13-.77.27-1.34l.56-2.13h.92l-1.22,4.32h-1.03Z"/>
      <path class="cls-1" d="M180.74,310.82l-.56-2.02c-.07-.21-.19-.71-.37-1.49h-.04c-.15.7-.27,1.2-.36,1.5l-.57,2.01h-1.02l-1.21-4.32h.94l.55,2.13c.12.53.21.98.27,1.35h.02c.03-.19.07-.41.12-.65s.1-.43.14-.55l.66-2.27h1.01l.64,2.27c.04.13.09.32.15.59.06.26.09.47.1.61h.03c.04-.32.13-.77.27-1.34l.56-2.13h.92l-1.22,4.32h-1.03Z"/>
      <path class="cls-1" d="M187.28,310.82l-.56-2.02c-.07-.21-.19-.71-.37-1.49h-.04c-.15.7-.27,1.2-.36,1.5l-.57,2.01h-1.02l-1.21-4.32h.94l.55,2.13c.12.53.21.98.27,1.35h.02c.03-.19.07-.41.12-.65s.1-.43.14-.55l.66-2.27h1.01l.64,2.27c.04.13.09.32.15.59.06.26.09.47.1.61h.03c.04-.32.13-.77.27-1.34l.56-2.13h.92l-1.22,4.32h-1.03Z"/>
      <path class="cls-1" d="M190.14,310.33c0-.19.05-.34.15-.44s.24-.15.43-.15.33.05.43.16.15.25.15.43-.05.33-.15.44c-.1.11-.24.16-.43.16s-.33-.05-.43-.16c-.1-.11-.15-.25-.15-.44Z"/>
      <path class="cls-1" d="M195.17,310.82l-.18-.6h-.03c-.21.26-.42.44-.63.54-.21.1-.48.14-.81.14-.42,0-.76-.11-.99-.34-.24-.23-.36-.55-.36-.97,0-.45.17-.78.5-1.01s.83-.35,1.51-.37l.75-.02v-.23c0-.28-.06-.48-.19-.62s-.33-.21-.6-.21c-.22,0-.43.03-.64.1-.2.07-.4.14-.59.23l-.3-.66c.23-.12.49-.21.77-.28.28-.06.54-.1.79-.1.55,0,.96.12,1.24.36.28.24.42.62.42,1.13v2.91h-.66ZM193.81,310.19c.33,0,.6-.09.8-.28.2-.19.3-.45.3-.78v-.38l-.55.02c-.43.02-.75.09-.94.22s-.29.33-.29.59c0,.19.06.34.17.45s.29.16.52.16Z"/>
      <path class="cls-1" d="M200.91,310.82h-.92v-2.66c0-.33-.07-.58-.2-.75s-.35-.25-.64-.25c-.39,0-.67.12-.85.34-.18.23-.27.61-.27,1.15v2.15h-.92v-4.32h.72l.13.57h.05c.13-.21.32-.36.55-.48.24-.11.5-.17.8-.17,1.04,0,1.55.53,1.55,1.58v2.82Z"/>
      <path class="cls-1" d="M202.14,305.35c0-.16.04-.29.13-.38.09-.09.22-.13.38-.13s.29.04.38.13c.09.09.13.21.13.38s-.04.28-.13.37-.22.13-.38.13-.29-.04-.38-.13-.13-.21-.13-.37ZM203.11,310.82h-.92v-4.32h.92v4.32Z"/>
      <path class="cls-1" d="M207.32,309.58c0,.42-.15.75-.46.97-.31.23-.75.34-1.32.34s-1.04-.09-1.39-.26v-.79c.51.23.98.35,1.42.35.57,0,.85-.17.85-.51,0-.11-.03-.2-.09-.27-.06-.07-.17-.15-.31-.23s-.34-.17-.6-.27c-.5-.19-.83-.38-1.01-.58-.18-.19-.26-.44-.26-.75,0-.37.15-.66.45-.86.3-.2.7-.31,1.22-.31s.99.1,1.44.31l-.3.69c-.47-.19-.86-.29-1.18-.29-.48,0-.73.14-.73.41,0,.14.06.25.19.34s.4.22.83.39c.36.14.62.26.78.38.16.12.28.25.36.4.08.15.12.33.12.54Z"/>
      <path class="cls-1" d="M211.02,310.82l-.18-.6h-.03c-.21.26-.42.44-.63.54-.21.1-.48.14-.81.14-.42,0-.76-.11-.99-.34-.24-.23-.36-.55-.36-.97,0-.45.17-.78.5-1.01s.83-.35,1.51-.37l.75-.02v-.23c0-.28-.06-.48-.19-.62s-.33-.21-.6-.21c-.22,0-.43.03-.64.1-.2.07-.4.14-.59.23l-.3-.66c.23-.12.49-.21.77-.28.28-.06.54-.1.79-.1.55,0,.96.12,1.24.36.28.24.42.62.42,1.13v2.91h-.66ZM209.65,310.19c.33,0,.6-.09.8-.28.2-.19.3-.45.3-.78v-.38l-.55.02c-.43.02-.75.09-.94.22s-.29.33-.29.59c0,.19.06.34.17.45s.29.16.52.16Z"/>
      <path class="cls-1" d="M214.41,310.89c-.54,0-.96-.2-1.26-.59s-.45-.94-.45-1.64.15-1.26.46-1.65.73-.59,1.27-.59,1,.21,1.3.63h.05c-.04-.31-.07-.55-.07-.73v-1.57h.92v6.08h-.72l-.16-.57h-.04c-.29.43-.73.64-1.29.64ZM214.66,310.15c.38,0,.65-.11.82-.32.17-.21.26-.56.27-1.03v-.13c0-.54-.09-.93-.27-1.16-.18-.23-.45-.34-.83-.34-.32,0-.57.13-.75.39s-.26.63-.26,1.12.08.84.25,1.1c.17.25.42.38.76.38Z"/>
      <path class="cls-1" d="M219.83,310.89c-.67,0-1.2-.2-1.58-.59-.38-.39-.57-.93-.57-1.62s.18-1.26.53-1.66c.35-.4.83-.61,1.45-.61.57,0,1.02.17,1.35.52.33.35.5.82.5,1.43v.5h-2.88c.01.42.13.74.34.97.21.23.51.34.9.34.25,0,.49-.02.71-.07.22-.05.46-.13.71-.24v.75c-.22.11-.45.18-.68.23-.23.04-.49.07-.79.07ZM219.66,307.11c-.29,0-.53.09-.7.28-.18.19-.28.46-.31.81h1.96c0-.36-.09-.63-.26-.81s-.4-.28-.69-.28Z"/>
      <path class="cls-1" d="M225.45,309.58c0,.42-.15.75-.46.97-.31.23-.75.34-1.32.34s-1.04-.09-1.39-.26v-.79c.51.23.98.35,1.42.35.57,0,.85-.17.85-.51,0-.11-.03-.2-.09-.27-.06-.07-.17-.15-.31-.23s-.34-.17-.6-.27c-.5-.19-.83-.38-1.01-.58-.18-.19-.26-.44-.26-.75,0-.37.15-.66.45-.86.3-.2.7-.31,1.22-.31s.99.1,1.44.31l-.3.69c-.47-.19-.86-.29-1.18-.29-.48,0-.73.14-.73.41,0,.14.06.25.19.34s.4.22.83.39c.36.14.62.26.78.38.16.12.28.25.36.4.08.15.12.33.12.54Z"/>
      <path class="cls-1" d="M226.39,305.35c0-.16.04-.29.13-.38.09-.09.22-.13.38-.13s.29.04.38.13c.09.09.13.21.13.38s-.04.28-.13.37-.22.13-.38.13-.29-.04-.38-.13-.13-.21-.13-.37ZM227.36,310.82h-.92v-4.32h.92v4.32Z"/>
      <path class="cls-1" d="M232.32,306.49v.5l-.74.14c.07.09.12.2.17.34s.07.27.07.42c0,.45-.15.8-.46,1.05-.31.26-.73.38-1.27.38-.14,0-.26,0-.38-.03-.2.12-.3.27-.3.43,0,.1.05.17.14.22.09.05.26.07.51.07h.75c.48,0,.84.1,1.09.3s.37.5.37.88c0,.49-.2.87-.61,1.13s-.99.4-1.75.4c-.59,0-1.04-.1-1.35-.31-.31-.21-.46-.5-.46-.89,0-.27.08-.49.25-.67.17-.18.4-.31.71-.38-.12-.05-.22-.14-.3-.25-.08-.12-.12-.24-.12-.37,0-.16.05-.3.14-.41.09-.11.23-.22.41-.33-.22-.1-.41-.25-.54-.47-.14-.22-.21-.47-.21-.76,0-.47.15-.83.44-1.09s.72-.39,1.26-.39c.12,0,.25,0,.38.03.13.02.24.04.3.05h1.5ZM228.93,311.49c0,.2.09.35.27.46.18.11.43.16.75.16.5,0,.87-.07,1.12-.21.25-.14.37-.33.37-.57,0-.19-.07-.32-.2-.4-.13-.08-.38-.12-.75-.12h-.7c-.26,0-.47.06-.63.19-.16.12-.23.29-.23.5ZM229.32,307.89c0,.27.07.48.21.62.14.15.34.22.6.22.53,0,.8-.28.8-.85,0-.28-.07-.5-.2-.65s-.33-.23-.6-.23-.47.08-.6.23c-.14.15-.21.37-.21.66Z"/>
      <path class="cls-1" d="M236.92,310.82h-.92v-2.66c0-.33-.07-.58-.2-.75s-.35-.25-.64-.25c-.39,0-.67.12-.85.34-.18.23-.27.61-.27,1.15v2.15h-.92v-4.32h.72l.13.57h.05c.13-.21.32-.36.55-.48.24-.11.5-.17.8-.17,1.04,0,1.55.53,1.55,1.58v2.82Z"/>
      <path class="cls-1" d="M238.06,310.33c0-.19.05-.34.15-.44s.24-.15.43-.15.33.05.43.16.15.25.15.43-.05.33-.15.44c-.1.11-.24.16-.43.16s-.33-.05-.43-.16c-.1-.11-.15-.25-.15-.44Z"/>
      <path class="cls-1" d="M242.14,310.89c-.65,0-1.15-.19-1.49-.57-.34-.38-.51-.93-.51-1.64s.18-1.29.53-1.68.87-.59,1.54-.59c.46,0,.87.08,1.23.25l-.28.74c-.39-.15-.71-.23-.96-.23-.75,0-1.12.5-1.12,1.49,0,.48.09.85.28,1.09.19.24.46.37.82.37.41,0,.8-.1,1.16-.3v.8c-.16.1-.34.17-.53.21-.19.04-.41.06-.68.06Z"/>
      <path class="cls-1" d="M247.06,310.82l-.18-.6h-.03c-.21.26-.42.44-.63.54-.21.1-.48.14-.81.14-.42,0-.76-.11-.99-.34-.24-.23-.36-.55-.36-.97,0-.45.17-.78.5-1.01s.83-.35,1.51-.37l.75-.02v-.23c0-.28-.06-.48-.19-.62s-.33-.21-.6-.21c-.22,0-.43.03-.64.1-.2.07-.4.14-.59.23l-.3-.66c.23-.12.49-.21.77-.28.28-.06.54-.1.79-.1.55,0,.96.12,1.24.36.28.24.42.62.42,1.13v2.91h-.66ZM245.7,310.19c.33,0,.6-.09.8-.28.2-.19.3-.45.3-.78v-.38l-.55.02c-.43.02-.75.09-.94.22s-.29.33-.29.59c0,.19.06.34.17.45s.29.16.52.16Z"/>
      <path class="cls-1" d="M83.03,321.82l-.18-.6h-.03c-.21.26-.42.44-.63.54-.21.1-.48.14-.81.14-.42,0-.76-.11-.99-.34-.24-.23-.36-.55-.36-.97,0-.45.17-.78.5-1.01s.83-.35,1.51-.37l.75-.02v-.23c0-.28-.06-.48-.19-.62s-.33-.21-.6-.21c-.22,0-.43.03-.64.1-.2.07-.4.14-.59.23l-.3-.66c.23-.12.49-.21.77-.28.28-.06.54-.1.79-.1.55,0,.96.12,1.24.36.28.24.42.62.42,1.13v2.91h-.66ZM81.66,321.19c.33,0,.6-.09.8-.28.2-.19.3-.45.3-.78v-.38l-.55.02c-.43.02-.75.09-.94.22s-.29.33-.29.59c0,.19.06.34.17.45s.29.16.52.16Z"/>
      <path class="cls-1" d="M88.77,321.82h-.92v-2.66c0-.33-.07-.58-.2-.75s-.35-.25-.64-.25c-.39,0-.67.12-.85.34-.18.23-.27.61-.27,1.15v2.15h-.92v-4.32h.72l.13.57h.05c.13-.21.32-.36.55-.48.24-.11.5-.17.8-.17,1.04,0,1.55.53,1.55,1.58v2.82Z"/>
      <path class="cls-1" d="M89.99,316.35c0-.16.04-.29.13-.38.09-.09.22-.13.38-.13s.29.04.38.13c.09.09.13.21.13.38s-.04.28-.13.37-.22.13-.38.13-.29-.04-.38-.13-.13-.21-.13-.37ZM90.96,321.82h-.92v-4.32h.92v4.32Z"/>
      <path class="cls-1" d="M95.18,320.58c0,.42-.15.75-.46.97-.31.23-.75.34-1.32.34s-1.04-.09-1.39-.26v-.79c.51.23.98.35,1.42.35.57,0,.85-.17.85-.51,0-.11-.03-.2-.09-.27-.06-.07-.17-.15-.31-.23s-.34-.17-.6-.27c-.5-.19-.83-.38-1.01-.58-.18-.19-.26-.44-.26-.75,0-.37.15-.66.45-.86.3-.2.7-.31,1.22-.31s.99.1,1.44.31l-.3.69c-.47-.19-.86-.29-1.18-.29-.48,0-.73.14-.73.41,0,.14.06.25.19.34s.4.22.83.39c.36.14.62.26.78.38.16.12.28.25.36.4.08.15.12.33.12.54Z"/>
      <path class="cls-1" d="M98.87,321.82l-.18-.6h-.03c-.21.26-.42.44-.63.54-.21.1-.48.14-.81.14-.42,0-.76-.11-.99-.34-.24-.23-.36-.55-.36-.97,0-.45.17-.78.5-1.01s.83-.35,1.51-.37l.75-.02v-.23c0-.28-.06-.48-.19-.62s-.33-.21-.6-.21c-.22,0-.43.03-.64.1-.2.07-.4.14-.59.23l-.3-.66c.23-.12.49-.21.77-.28.28-.06.54-.1.79-.1.55,0,.96.12,1.24.36.28.24.42.62.42,1.13v2.91h-.66ZM97.51,321.19c.33,0,.6-.09.8-.28.2-.19.3-.45.3-.78v-.38l-.55.02c-.43.02-.75.09-.94.22s-.29.33-.29.59c0,.19.06.34.17.45s.29.16.52.16Z"/>
      <path class="cls-1" d="M102.27,321.89c-.54,0-.96-.2-1.26-.59s-.45-.94-.45-1.64.15-1.26.46-1.65.73-.59,1.27-.59,1,.21,1.3.63h.05c-.04-.31-.07-.55-.07-.73v-1.57h.92v6.08h-.72l-.16-.57h-.04c-.29.43-.73.64-1.29.64ZM102.51,321.15c.38,0,.65-.11.82-.32.17-.21.26-.56.27-1.03v-.13c0-.54-.09-.93-.27-1.16-.18-.23-.45-.34-.83-.34-.32,0-.57.13-.75.39s-.26.63-.26,1.12.08.84.25,1.1c.17.25.42.38.76.38Z"/>
      <path class="cls-1" d="M107.68,321.89c-.67,0-1.2-.2-1.58-.59-.38-.39-.57-.93-.57-1.62s.18-1.26.53-1.66c.35-.4.83-.61,1.45-.61.57,0,1.02.17,1.35.52.33.35.5.82.5,1.43v.5h-2.88c.01.42.13.74.34.97.21.23.51.34.9.34.25,0,.49-.02.71-.07.22-.05.46-.13.71-.24v.75c-.22.11-.45.18-.68.23-.23.04-.49.07-.79.07ZM107.51,318.11c-.29,0-.53.09-.7.28-.18.19-.28.46-.31.81h1.96c0-.36-.09-.63-.26-.81s-.4-.28-.69-.28Z"/>
      <path class="cls-1" d="M113.31,320.58c0,.42-.15.75-.46.97-.31.23-.75.34-1.32.34s-1.04-.09-1.39-.26v-.79c.51.23.98.35,1.42.35.57,0,.85-.17.85-.51,0-.11-.03-.2-.09-.27-.06-.07-.17-.15-.31-.23s-.34-.17-.6-.27c-.5-.19-.83-.38-1.01-.58-.18-.19-.26-.44-.26-.75,0-.37.15-.66.45-.86.3-.2.7-.31,1.22-.31s.99.1,1.44.31l-.3.69c-.47-.19-.86-.29-1.18-.29-.48,0-.73.14-.73.41,0,.14.06.25.19.34s.4.22.83.39c.36.14.62.26.78.38.16.12.28.25.36.4.08.15.12.33.12.54Z"/>
      <path class="cls-1" d="M114.24,316.35c0-.16.04-.29.13-.38.09-.09.22-.13.38-.13s.29.04.38.13c.09.09.13.21.13.38s-.04.28-.13.37-.22.13-.38.13-.29-.04-.38-.13-.13-.21-.13-.37ZM115.22,321.82h-.92v-4.32h.92v4.32Z"/>
      <path class="cls-1" d="M120.18,317.49v.5l-.74.14c.07.09.12.2.17.34s.07.27.07.42c0,.45-.15.8-.46,1.05-.31.26-.73.38-1.27.38-.14,0-.26,0-.38-.03-.2.12-.3.27-.3.43,0,.1.05.17.14.22.09.05.26.07.51.07h.75c.48,0,.84.1,1.09.3s.37.5.37.88c0,.49-.2.87-.61,1.13s-.99.4-1.75.4c-.59,0-1.04-.1-1.35-.31-.31-.21-.46-.5-.46-.89,0-.27.08-.49.25-.67.17-.18.4-.31.71-.38-.12-.05-.22-.14-.3-.25-.08-.12-.12-.24-.12-.37,0-.16.05-.3.14-.41.09-.11.23-.22.41-.33-.22-.1-.41-.25-.54-.47-.14-.22-.21-.47-.21-.76,0-.47.15-.83.44-1.09s.72-.39,1.26-.39c.12,0,.25,0,.38.03.13.02.24.04.3.05h1.5ZM116.78,322.49c0,.2.09.35.27.46.18.11.43.16.75.16.5,0,.87-.07,1.12-.21.25-.14.37-.33.37-.57,0-.19-.07-.32-.2-.4-.13-.08-.38-.12-.75-.12h-.7c-.26,0-.47.06-.63.19-.16.12-.23.29-.23.5ZM117.18,318.89c0,.27.07.48.21.62.14.15.34.22.6.22.53,0,.8-.28.8-.85,0-.28-.07-.5-.2-.65s-.33-.23-.6-.23-.47.08-.6.23c-.14.15-.21.37-.21.66Z"/>
      <path class="cls-1" d="M124.78,321.82h-.92v-2.66c0-.33-.07-.58-.2-.75s-.35-.25-.64-.25c-.39,0-.67.12-.85.34-.18.23-.27.61-.27,1.15v2.15h-.92v-4.32h.72l.13.57h.05c.13-.21.32-.36.55-.48.24-.11.5-.17.8-.17,1.04,0,1.55.53,1.55,1.58v2.82Z"/>
      <path class="cls-1" d="M127.8,321.89c-.65,0-1.15-.19-1.49-.57-.34-.38-.51-.93-.51-1.64s.18-1.29.53-1.68.87-.59,1.54-.59c.46,0,.87.08,1.23.25l-.28.74c-.39-.15-.71-.23-.96-.23-.75,0-1.12.5-1.12,1.49,0,.48.09.85.28,1.09.19.24.46.37.82.37.41,0,.8-.1,1.16-.3v.8c-.16.1-.34.17-.53.21-.19.04-.41.06-.68.06Z"/>
      <path class="cls-1" d="M132.72,321.82l-.18-.6h-.03c-.21.26-.42.44-.63.54-.21.1-.48.14-.81.14-.42,0-.76-.11-.99-.34-.24-.23-.36-.55-.36-.97,0-.45.17-.78.5-1.01s.83-.35,1.51-.37l.75-.02v-.23c0-.28-.06-.48-.19-.62s-.33-.21-.6-.21c-.22,0-.43.03-.64.1-.2.07-.4.14-.59.23l-.3-.66c.23-.12.49-.21.77-.28.28-.06.54-.1.79-.1.55,0,.96.12,1.24.36.28.24.42.62.42,1.13v2.91h-.66ZM131.35,321.19c.33,0,.6-.09.8-.28.2-.19.3-.45.3-.78v-.38l-.55.02c-.43.02-.75.09-.94.22s-.29.33-.29.59c0,.19.06.34.17.45s.29.16.52.16Z"/>
      <path class="cls-1" d="M140.74,318.93c0,.37-.06.71-.18,1.02s-.28.55-.49.72-.46.26-.74.26c-.21,0-.38-.05-.54-.16s-.25-.26-.3-.45h-.05c-.13.2-.29.36-.47.46s-.4.15-.63.15c-.42,0-.76-.14-1-.41s-.37-.64-.37-1.11c0-.54.16-.97.48-1.31.32-.33.76-.5,1.3-.5.2,0,.42.02.66.05s.46.08.64.15l-.09,1.82v.09c0,.42.14.62.41.62.21,0,.37-.13.49-.4s.18-.6.18-1.02c0-.45-.09-.84-.27-1.17-.18-.34-.44-.6-.78-.78-.34-.18-.72-.27-1.16-.27-.55,0-1.04.12-1.45.34-.41.23-.72.56-.94.98s-.32.92-.32,1.48c0,.76.2,1.34.61,1.74s.98.61,1.74.61c.58,0,1.18-.12,1.8-.35v.64c-.55.22-1.14.34-1.79.34-.96,0-1.71-.26-2.25-.78s-.81-1.24-.81-2.17c0-.68.15-1.28.44-1.81.29-.53.7-.94,1.21-1.22s1.1-.42,1.76-.42c.57,0,1.07.12,1.51.35s.78.57,1.03,1,.37.93.37,1.5ZM136.73,319.42c0,.61.24.91.71.91.5,0,.78-.38.82-1.14l.05-.93c-.16-.04-.34-.07-.53-.07-.33,0-.59.11-.78.33-.19.22-.28.52-.28.9Z"/>
      <path class="cls-1" d="M145.49,317.49v.5l-.74.14c.07.09.12.2.17.34s.07.27.07.42c0,.45-.15.8-.46,1.05-.31.26-.73.38-1.27.38-.14,0-.26,0-.38-.03-.2.12-.3.27-.3.43,0,.1.05.17.14.22.09.05.26.07.51.07h.75c.48,0,.84.1,1.09.3s.37.5.37.88c0,.49-.2.87-.61,1.13s-.99.4-1.75.4c-.59,0-1.04-.1-1.35-.31-.31-.21-.46-.5-.46-.89,0-.27.08-.49.25-.67.17-.18.4-.31.71-.38-.12-.05-.22-.14-.3-.25-.08-.12-.12-.24-.12-.37,0-.16.05-.3.14-.41.09-.11.23-.22.41-.33-.22-.1-.41-.25-.54-.47-.14-.22-.21-.47-.21-.76,0-.47.15-.83.44-1.09s.72-.39,1.26-.39c.12,0,.25,0,.38.03.13.02.24.04.3.05h1.5ZM142.1,322.49c0,.2.09.35.27.46.18.11.43.16.75.16.5,0,.87-.07,1.12-.21.25-.14.37-.33.37-.57,0-.19-.07-.32-.2-.4-.13-.08-.38-.12-.75-.12h-.7c-.26,0-.47.06-.63.19-.16.12-.23.29-.23.5ZM142.49,318.89c0,.27.07.48.21.62.14.15.34.22.6.22.53,0,.8-.28.8-.85,0-.28-.07-.5-.2-.65s-.33-.23-.6-.23-.47.08-.6.23c-.14.15-.21.37-.21.66Z"/>
      <path class="cls-1" d="M149.93,321.82h-.92v-2.66c0-.33-.06-.58-.19-.74-.12-.16-.32-.24-.59-.24-.35,0-.61.12-.78.35s-.25.61-.25,1.15v2.15h-.92v-4.32h.72l.13.57h.05c.12-.21.29-.36.52-.48.23-.11.48-.17.75-.17.66,0,1.1.23,1.32.68h.06c.13-.21.31-.38.54-.5.23-.12.5-.18.8-.18.52,0,.89.13,1.13.39.24.26.35.66.35,1.19v2.82h-.92v-2.66c0-.33-.06-.58-.19-.74-.13-.16-.32-.24-.59-.24-.36,0-.62.11-.78.33s-.25.56-.25,1.03v2.29Z"/>
      <path class="cls-1" d="M156.64,321.82l-.18-.6h-.03c-.21.26-.42.44-.63.54-.21.1-.48.14-.81.14-.42,0-.76-.11-.99-.34-.24-.23-.36-.55-.36-.97,0-.45.17-.78.5-1.01s.83-.35,1.51-.37l.75-.02v-.23c0-.28-.06-.48-.19-.62s-.33-.21-.6-.21c-.22,0-.43.03-.64.1-.2.07-.4.14-.59.23l-.3-.66c.23-.12.49-.21.77-.28.28-.06.54-.1.79-.1.55,0,.96.12,1.24.36.28.24.42.62.42,1.13v2.91h-.66ZM155.28,321.19c.33,0,.6-.09.8-.28.2-.19.3-.45.3-.78v-.38l-.55.02c-.43.02-.75.09-.94.22s-.29.33-.29.59c0,.19.06.34.17.45s.29.16.52.16Z"/>
      <path class="cls-1" d="M158.53,316.35c0-.16.04-.29.13-.38.09-.09.22-.13.38-.13s.29.04.38.13c.09.09.13.21.13.38s-.04.28-.13.37-.22.13-.38.13-.29-.04-.38-.13-.13-.21-.13-.37ZM159.5,321.82h-.92v-4.32h.92v4.32Z"/>
      <path class="cls-1" d="M161.73,321.82h-.92v-6.08h.92v6.08Z"/>
      <path class="cls-1" d="M162.9,321.33c0-.19.05-.34.15-.44s.24-.15.43-.15.33.05.43.16.15.25.15.43-.05.33-.15.44c-.1.11-.24.16-.43.16s-.33-.05-.43-.16c-.1-.11-.15-.25-.15-.44Z"/>
      <path class="cls-1" d="M166.98,321.89c-.65,0-1.15-.19-1.49-.57-.34-.38-.51-.93-.51-1.64s.18-1.29.53-1.68.87-.59,1.54-.59c.46,0,.87.08,1.23.25l-.28.74c-.39-.15-.71-.23-.96-.23-.75,0-1.12.5-1.12,1.49,0,.48.09.85.28,1.09.19.24.46.37.82.37.41,0,.8-.1,1.16-.3v.8c-.16.1-.34.17-.53.21-.19.04-.41.06-.68.06Z"/>
      <path class="cls-1" d="M173.03,319.65c0,.71-.18,1.26-.54,1.65-.36.4-.87.59-1.51.59-.4,0-.76-.09-1.07-.27-.31-.18-.55-.44-.71-.79-.17-.34-.25-.74-.25-1.19,0-.7.18-1.25.54-1.64.36-.39.87-.59,1.52-.59s1.12.2,1.48.6.55.95.55,1.63ZM169.89,319.65c0,1,.37,1.5,1.11,1.5s1.09-.5,1.09-1.5-.37-1.48-1.1-1.48c-.39,0-.67.13-.84.38-.17.26-.26.62-.26,1.1Z"/>
      <path class="cls-1" d="M177.73,321.82h-.92v-2.66c0-.33-.06-.58-.19-.74-.12-.16-.32-.24-.59-.24-.35,0-.61.12-.78.35s-.25.61-.25,1.15v2.15h-.92v-4.32h.72l.13.57h.05c.12-.21.29-.36.52-.48.23-.11.48-.17.75-.17.66,0,1.1.23,1.32.68h.06c.13-.21.31-.38.54-.5.23-.12.5-.18.8-.18.52,0,.89.13,1.13.39.24.26.35.66.35,1.19v2.82h-.92v-2.66c0-.33-.06-.58-.19-.74-.13-.16-.32-.24-.59-.24-.36,0-.62.11-.78.33s-.25.56-.25,1.03v2.29Z"/>
      <path class="cls-1" d="M189.24,319.34h-1.55v-.7h1.55v-1.59h.7v1.59h1.56v.7h-1.56v1.59h-.7v-1.59Z"/>
      <path class="cls-1" d="M194.93,321.82h-.92v-3.69c0-.44.01-.79.03-1.05-.06.06-.13.13-.22.21-.09.08-.38.32-.88.72l-.46-.58,1.68-1.32h.77v5.71Z"/>
      <path class="cls-1" d="M199.53,321.82l2.26-4.89h-2.97v-.81h3.95v.64l-2.25,5.06h-.99Z"/>
      <path class="cls-1" d="M204.09,321.82l2.26-4.89h-2.97v-.81h3.95v.64l-2.25,5.06h-.99Z"/>
      <path class="cls-1" d="M209.94,316.03c.54,0,.97.12,1.29.37.32.25.47.58.47,1,0,.59-.35,1.05-1.05,1.4.45.22.77.46.96.71.19.25.28.52.28.83,0,.47-.17.85-.52,1.13-.35.28-.82.43-1.41.43-.62,0-1.1-.13-1.44-.4s-.51-.64-.51-1.13c0-.32.09-.6.27-.86s.47-.48.88-.68c-.35-.21-.6-.43-.75-.66-.15-.23-.22-.49-.22-.78,0-.41.16-.74.49-.99s.75-.37,1.27-.37ZM208.88,320.33c0,.27.09.48.29.63.19.15.45.22.77.22s.6-.08.78-.23c.19-.15.28-.37.28-.63,0-.21-.09-.4-.26-.58-.17-.17-.43-.34-.78-.48l-.11-.05c-.34.15-.59.32-.74.5-.15.18-.23.39-.23.62ZM209.93,316.74c-.26,0-.47.06-.63.19s-.24.3-.24.53c0,.14.03.26.09.36.06.11.14.2.25.29.11.09.29.19.55.31.31-.14.53-.28.66-.44s.19-.33.19-.53c0-.22-.08-.4-.24-.53s-.37-.19-.64-.19Z"/>
      <path class="cls-1" d="M218.52,318.54c0,1.12-.23,1.96-.68,2.52s-1.14.83-2.05.83c-.35,0-.59-.02-.75-.06v-.77c.23.07.46.1.7.1.62,0,1.08-.17,1.39-.5.3-.33.47-.86.5-1.57h-.05c-.15.23-.34.4-.56.51-.22.1-.47.16-.76.16-.5,0-.9-.16-1.19-.47-.29-.31-.43-.75-.43-1.3,0-.6.17-1.07.5-1.42.33-.35.79-.53,1.37-.53.41,0,.76.1,1.06.3.3.2.54.49.7.86.16.38.25.83.25,1.35ZM216.53,316.79c-.32,0-.56.1-.73.31s-.25.5-.25.87c0,.33.08.58.24.77.16.19.4.28.72.28s.57-.09.78-.28c.21-.18.32-.4.32-.65,0-.23-.04-.45-.13-.65-.09-.2-.22-.36-.38-.48s-.35-.18-.55-.18Z"/>
      <path class="cls-1" d="M223.09,321.82h-3.87v-.7l1.47-1.48c.43-.45.72-.76.87-.95.14-.19.25-.36.31-.53s.1-.34.1-.53c0-.26-.08-.46-.23-.61s-.37-.22-.64-.22c-.22,0-.43.04-.63.12-.2.08-.44.23-.71.44l-.5-.61c.32-.27.63-.46.93-.57.3-.11.62-.17.96-.17.53,0,.96.14,1.28.42s.48.65.48,1.12c0,.26-.05.5-.14.73-.09.23-.23.47-.43.72s-.51.58-.96,1l-.99.96v.04h2.71v.81Z"/>
      <path class="cls-1" d="M224.44,321.82l2.26-4.89h-2.97v-.81h3.95v.64l-2.25,5.06h-.99Z"/>
      <path class="cls-1" d="M230.45,319.38c0-2.23.91-3.35,2.73-3.35.29,0,.53.02.73.07v.77c-.2-.06-.43-.09-.69-.09-.61,0-1.07.16-1.38.49s-.47.85-.5,1.58h.05c.12-.21.29-.37.52-.49.22-.12.48-.17.78-.17.52,0,.92.16,1.21.48.29.32.43.75.43,1.29,0,.6-.17,1.07-.5,1.42s-.79.52-1.37.52c-.41,0-.76-.1-1.07-.29-.3-.2-.53-.48-.7-.86-.16-.38-.24-.83-.24-1.36ZM232.44,321.14c.32,0,.56-.1.73-.3s.26-.49.26-.87c0-.33-.08-.59-.24-.77s-.4-.28-.72-.28c-.2,0-.38.04-.55.13-.17.08-.3.2-.39.35-.1.15-.14.3-.14.45,0,.37.1.68.3.93.2.25.45.38.76.38Z"/>
      <path class="cls-1" d="M236.94,318.25c.58,0,1.03.15,1.37.46s.5.72.5,1.25c0,.61-.19,1.09-.57,1.43-.38.34-.92.51-1.63.51-.64,0-1.14-.1-1.5-.31v-.83c.21.12.45.21.73.28.27.07.53.1.76.1.41,0,.73-.09.95-.28.22-.18.32-.46.32-.81,0-.68-.43-1.02-1.3-1.02-.12,0-.27.01-.45.04-.18.03-.34.05-.47.08l-.41-.24.22-2.79h2.97v.82h-2.16l-.13,1.41c.09-.02.2-.03.33-.05.13-.02.29-.03.48-.03Z"/>
      <path class="cls-1" d="M243.22,317.42c0,.36-.11.66-.32.9-.21.24-.51.4-.89.49v.03c.46.06.8.2,1.03.43.23.23.34.53.34.91,0,.55-.19.97-.58,1.27-.39.3-.94.45-1.66.45-.63,0-1.17-.1-1.6-.31v-.82c.24.12.5.21.77.28.27.07.53.1.78.1.44,0,.77-.08.99-.25s.33-.42.33-.76c0-.3-.12-.53-.36-.67-.24-.14-.62-.21-1.14-.21h-.5v-.75h.5c.91,0,1.37-.31,1.37-.95,0-.24-.08-.43-.24-.57s-.39-.2-.7-.2c-.22,0-.42.03-.62.09-.2.06-.44.18-.71.36l-.45-.64c.52-.38,1.13-.58,1.82-.58.58,0,1.02.12,1.35.37.32.25.48.59.48,1.02Z"/>
      <path class="cls-1" d="M247.79,317.42c0,.36-.11.66-.32.9-.21.24-.51.4-.89.49v.03c.46.06.8.2,1.03.43.23.23.34.53.34.91,0,.55-.19.97-.58,1.27-.39.3-.94.45-1.66.45-.63,0-1.17-.1-1.6-.31v-.82c.24.12.5.21.77.28.27.07.53.1.78.1.44,0,.77-.08.99-.25s.33-.42.33-.76c0-.3-.12-.53-.36-.67-.24-.14-.62-.21-1.14-.21h-.5v-.75h.5c.91,0,1.37-.31,1.37-.95,0-.24-.08-.43-.24-.57s-.39-.2-.7-.2c-.22,0-.42.03-.62.09-.2.06-.44.18-.71.36l-.45-.64c.52-.38,1.13-.58,1.82-.58.58,0,1.02.12,1.35.37.32.25.48.59.48,1.02Z"/>
    </g>
    <path class="cls-2" d="M166,305.31v6.55c0,.67,1.22.41,1.22-.19v-6.55c0-.67-1.22-.41-1.22.19h0Z"/>
    <path class="cls-2" d="M183.43,315.84c0,1.91,0,3.82,0,5.73v.81c0,.67,1.22.41,1.22-.19v-6.55c0-.67-1.22-.41-1.22.19h0Z"/>
  </g>
  <g id="Backside">
    <rect id="Background-2" data-name="Background" class="cls-4" x="275.15" y="183.41" width="265.46" height="156.44"/>
    <g id="Logo">
      <path class="cls-6" d="M378.65,260.21c-.35,0-.64-.08-.85-.24-.21-.16-.34-.38-.39-.65-.04-.27,0-.58.15-.92l5.82-12.9c.19-.43.42-.73.69-.91s.59-.28.94-.28.64.09.92.28c.27.18.5.49.69.91l5.84,12.9c.16.34.22.65.18.93s-.17.5-.38.65c-.21.15-.48.23-.82.23-.41,0-.73-.1-.96-.3s-.43-.5-.61-.92l-1.43-3.33,1.19.77h-9.31l1.19-.77-1.41,3.33c-.19.43-.39.73-.6.93-.21.19-.5.29-.88.29ZM384.98,247.55l-3.09,7.34-.57-.71h7.37l-.55.71-3.11-7.34h-.04Z"/>
      <path class="cls-6" d="M396.23,260.21c-.43,0-.75-.12-.98-.35-.23-.23-.34-.57-.34-1.01v-13.12c0-.45.11-.8.34-1.05.23-.24.53-.36.89-.36.34,0,.59.06.76.19.17.13.37.33.61.63l8.45,10.96h-.57v-10.43c0-.43.11-.76.34-.99s.55-.35.98-.35.75.12.97.35.33.57.33.99v13.23c0,.41-.1.74-.31.97-.21.24-.48.35-.84.35s-.61-.07-.8-.2c-.2-.13-.42-.34-.65-.64l-8.43-10.96h.55v10.43c0,.44-.11.78-.33,1.01-.22.24-.54.35-.97.35Z"/>
      <path class="cls-6" d="M413.18,278.59c-.44,0-.78-.13-1.01-.4-.24-.26-.35-.63-.35-1.1v-25.8c0-.48.12-.86.35-1.11.24-.26.57-.39,1.01-.39s.78.13,1.03.39c.24.26.36.63.36,1.11v25.8c0,.47-.12.84-.35,1.1s-.58.4-1.04.4Z"/>
      <path class="cls-6" d="M424.37,260.25c-.65,0-1.29-.05-1.94-.14-.65-.1-1.26-.24-1.83-.44-.57-.2-1.09-.44-1.54-.74-.26-.18-.45-.39-.55-.64-.1-.25-.14-.5-.1-.74.04-.24.13-.45.29-.64.15-.18.35-.3.58-.34.24-.04.49.02.77.2.65.38,1.33.66,2.05.84.72.18,1.48.26,2.27.26,1.16,0,2.01-.19,2.54-.59.53-.39.79-.89.79-1.51,0-.51-.19-.92-.56-1.21-.38-.29-1.02-.54-1.93-.73l-2.43-.51c-1.4-.29-2.44-.79-3.12-1.49s-1.02-1.62-1.02-2.77c0-.72.15-1.37.44-1.96.29-.59.71-1.09,1.25-1.52.54-.43,1.18-.75,1.92-.98.74-.23,1.56-.34,2.46-.34s1.72.11,2.51.33c.79.22,1.51.54,2.14.97.24.16.39.36.47.6s.1.47.05.69-.15.42-.31.58c-.16.16-.36.26-.61.29-.24.03-.52-.04-.83-.22-.54-.31-1.1-.53-1.65-.66-.56-.13-1.16-.2-1.81-.2s-1.26.1-1.74.29-.86.46-1.11.8c-.26.35-.39.75-.39,1.22,0,.53.18.95.53,1.27.35.32.95.56,1.81.74l2.4.51c1.46.31,2.54.79,3.25,1.46.71.66,1.07,1.54,1.07,2.65,0,.71-.14,1.35-.43,1.92-.29.57-.7,1.07-1.23,1.48-.54.41-1.18.73-1.93.95-.75.22-1.6.33-2.54.33Z"/>
      <path class="cls-6" d="M433.34,260.21c-.35,0-.64-.08-.85-.24-.21-.16-.34-.38-.39-.65-.04-.27,0-.58.15-.92l5.82-12.9c.19-.43.42-.73.69-.91s.59-.28.94-.28.64.09.92.28c.27.18.5.49.69.91l5.84,12.9c.16.34.22.65.18.93s-.17.5-.38.65c-.21.15-.48.23-.82.23-.41,0-.73-.1-.96-.3s-.43-.5-.61-.92l-1.43-3.33,1.19.77h-9.31l1.19-.77-1.41,3.33c-.19.43-.39.73-.6.93-.21.19-.5.29-.88.29ZM439.67,247.55l-3.09,7.34-.57-.71h7.37l-.55.71-3.11-7.34h-.04Z"/>
      <path class="cls-6" d="M369.06,278.58c-.49,0-.86-.13-1.11-.39-.26-.26-.39-.63-.39-1.11v-12.55c0-.49.13-.86.39-1.11.26-.26.63-.39,1.11-.39h4.28c2.6,0,4.61.67,6.03,2.01,1.42,1.34,2.13,3.26,2.13,5.76,0,1.25-.18,2.36-.54,3.32-.36.96-.89,1.78-1.59,2.44-.7.66-1.55,1.17-2.56,1.51-1.01.35-2.17.52-3.47.52h-4.28ZM370.38,276.25h2.78c.91,0,1.7-.11,2.37-.34.67-.23,1.23-.57,1.68-1.01.45-.45.78-1.01,1-1.7.22-.68.33-1.48.33-2.39,0-1.82-.45-3.18-1.35-4.08-.9-.9-2.24-1.35-4.04-1.35h-2.78v10.87Z"/>
      <path class="cls-6" d="M385.86,278.58c-.49,0-.86-.13-1.11-.39-.26-.26-.39-.63-.39-1.11v-12.55c0-.49.13-.86.39-1.11.26-.26.63-.39,1.11-.39h7.87c.37,0,.65.1.85.29.2.19.3.46.3.82s-.1.65-.3.85c-.2.2-.48.3-.85.3h-6.66v4.28h6.17c.38,0,.67.1.86.29s.29.47.29.84-.1.65-.29.84-.48.29-.86.29h-6.17v4.52h6.66c.37,0,.65.1.85.29.2.19.3.47.3.84s-.1.65-.3.84c-.2.19-.48.29-.85.29h-7.87Z"/>
      <path class="cls-6" d="M402.67,278.81c-.65,0-1.29-.05-1.94-.14-.65-.1-1.26-.24-1.83-.44-.57-.2-1.09-.44-1.54-.74-.26-.18-.45-.39-.55-.64-.1-.25-.14-.5-.1-.74.04-.24.13-.45.29-.64.15-.18.35-.3.58-.34.24-.04.49.02.77.2.65.38,1.33.66,2.05.84.72.18,1.48.26,2.27.26,1.16,0,2.01-.19,2.54-.59.53-.39.79-.89.79-1.51,0-.51-.19-.92-.56-1.21-.38-.29-1.02-.54-1.93-.73l-2.43-.51c-1.4-.29-2.44-.79-3.12-1.49s-1.02-1.62-1.02-2.77c0-.72.15-1.37.44-1.96.29-.59.71-1.09,1.25-1.52.54-.43,1.18-.75,1.92-.98.74-.23,1.56-.34,2.46-.34s1.72.11,2.51.33c.79.22,1.51.54,2.14.97.24.16.39.36.47.6s.1.47.05.69-.15.42-.31.58c-.16.16-.36.26-.61.29-.24.03-.52-.04-.83-.22-.54-.31-1.1-.53-1.65-.66-.56-.13-1.16-.2-1.81-.2s-1.26.1-1.74.29-.86.46-1.11.8c-.26.35-.39.75-.39,1.22,0,.53.18.95.53,1.27.35.32.95.56,1.81.74l2.4.51c1.46.31,2.54.79,3.25,1.46.71.66,1.07,1.54,1.07,2.65,0,.71-.14,1.35-.43,1.92-.29.57-.7,1.07-1.23,1.48-.54.41-1.18.73-1.93.95-.75.22-1.6.33-2.54.33Z"/>
      <path class="cls-6" d="M425.6,278.81c-1.72,0-3.17-.32-4.36-.97-1.18-.65-2.08-1.56-2.7-2.76-.62-1.19-.93-2.6-.93-4.23,0-1.23.18-2.34.54-3.33s.88-1.83,1.57-2.53,1.52-1.23,2.5-1.61c.99-.38,2.1-.56,3.35-.56.82,0,1.65.1,2.48.3.83.2,1.61.53,2.35,1,.25.16.42.36.5.6s.09.47.03.72c-.06.24-.17.45-.33.63-.16.18-.36.29-.61.33-.24.04-.51-.01-.8-.18-.56-.32-1.13-.56-1.7-.71-.57-.15-1.21-.22-1.92-.22-1.09,0-2.01.22-2.76.65s-1.31,1.06-1.69,1.89c-.38.82-.56,1.83-.56,3.02,0,1.81.43,3.18,1.3,4.12.87.94,2.15,1.41,3.86,1.41.59,0,1.18-.06,1.79-.18.6-.12,1.19-.28,1.76-.49l-.55,1.26v-4.7h-2.43c-.37,0-.65-.1-.85-.29s-.3-.45-.3-.77.1-.6.3-.77c.2-.18.48-.26.85-.26h3.64c.37,0,.65.1.85.3.2.2.3.48.3.85v5.36c0,.32-.06.6-.19.82s-.33.38-.61.48c-.65.24-1.39.43-2.23.59s-1.66.23-2.47.23Z"/>
      <path class="cls-6" d="M435.68,278.76c-.43,0-.75-.12-.98-.35-.23-.23-.34-.57-.34-1.01v-13.12c0-.45.11-.8.34-1.05.23-.24.53-.36.89-.36.34,0,.59.06.76.19.17.13.37.33.61.63l8.45,10.96h-.57v-15.19c0-.43.11-.76.34-.99s.55-.35.98-.35.75.12.97.35.33.57.33.99v17.99c0,.41-.1.74-.31.97-.21.24-.48.35-.84.35s-.61-.07-.8-.2c-.2-.13-.42-.34-.65-.64l-8.43-10.96h.55v10.43c0,.44-.11.78-.33,1.01-.22.24-.54.35-.97.35Z"/>
      <path class="cls-5" d="M413.18,247.74c-.52,0-.92-.13-1.2-.39-.29-.26-.43-.61-.43-1.07s.14-.83.43-1.08c.29-.25.69-.37,1.2-.37s.93.12,1.21.37c.28.25.42.61.42,1.08s-.14.81-.42,1.07c-.28.26-.68.39-1.21.39Z"/>
    </g>
    <g id="Logo-2" data-name="Logo">
      <path class="cls-6" d="M384.31,20.83c-.28,0-.51-.07-.68-.2-.17-.13-.27-.3-.31-.52-.04-.22,0-.46.12-.74l4.68-10.37c.15-.34.34-.59.56-.74s.47-.22.75-.22.52.07.74.22c.22.15.4.39.56.74l4.7,10.37c.13.27.18.52.14.75s-.14.4-.3.52c-.17.12-.38.19-.66.19-.33,0-.59-.08-.77-.24s-.35-.4-.49-.74l-1.15-2.68.96.62h-7.48l.96-.62-1.13,2.68c-.15.34-.31.59-.48.74-.17.15-.4.23-.71.23ZM389.4,10.66l-2.48,5.9-.46-.57h5.92l-.44.57-2.5-5.9h-.04Z"/>
      <path class="cls-6" d="M398.44,20.83c-.34,0-.61-.1-.79-.28-.18-.19-.27-.46-.27-.82v-10.55c0-.37.09-.65.27-.84.18-.2.42-.29.72-.29.27,0,.48.05.61.15.14.1.3.27.49.51l6.79,8.81h-.46v-8.39c0-.34.09-.61.27-.8s.45-.28.79-.28.6.1.78.28.27.45.27.8v10.64c0,.33-.08.59-.25.78-.17.19-.39.28-.67.28s-.49-.05-.65-.16c-.16-.11-.33-.28-.52-.51l-6.77-8.81h.44v8.39c0,.35-.09.63-.27.82-.18.19-.44.28-.78.28Z"/>
      <path class="cls-6" d="M412.07,35.61c-.35,0-.63-.11-.82-.32-.19-.21-.28-.51-.28-.89V13.66c0-.39.09-.69.28-.9.19-.21.46-.31.82-.31s.63.1.82.31c.19.21.29.51.29.9v20.74c0,.38-.09.67-.28.89s-.47.32-.83.32Z"/>
      <path class="cls-6" d="M421.06,20.87c-.52,0-1.04-.04-1.56-.12-.52-.08-1.01-.19-1.47-.35-.46-.16-.88-.36-1.24-.59-.21-.14-.36-.31-.44-.51-.08-.2-.11-.4-.08-.59.03-.19.11-.37.23-.51.12-.15.28-.24.47-.27.19-.04.4.02.62.16.52.31,1.07.53,1.65.67.58.14,1.19.21,1.83.21.93,0,1.61-.16,2.04-.47.42-.31.64-.72.64-1.21,0-.41-.15-.74-.45-.98-.3-.24-.82-.43-1.55-.59l-1.95-.41c-1.12-.24-1.96-.64-2.51-1.2s-.82-1.3-.82-2.22c0-.58.12-1.11.35-1.58.24-.47.57-.88,1-1.22.43-.34.95-.61,1.54-.79.6-.18,1.26-.27,1.98-.27s1.38.09,2.02.27c.64.18,1.21.44,1.72.78.19.13.32.29.38.48s.08.38.04.56-.12.34-.25.47c-.13.13-.29.21-.49.23-.19.02-.42-.04-.66-.18-.44-.25-.88-.43-1.33-.53-.45-.11-.93-.16-1.45-.16s-1.01.08-1.4.23-.69.37-.9.65c-.21.28-.31.61-.31.98,0,.43.14.77.43,1.02.28.25.77.45,1.45.59l1.93.41c1.17.25,2.04.64,2.62,1.17.57.53.86,1.24.86,2.13,0,.57-.11,1.08-.35,1.54-.23.46-.56.86-.99,1.19-.43.33-.95.59-1.55.76-.6.18-1.28.27-2.04.27Z"/>
      <path class="cls-6" d="M428.27,20.83c-.28,0-.51-.07-.68-.2-.17-.13-.27-.3-.31-.52-.04-.22,0-.46.12-.74l4.68-10.37c.15-.34.34-.59.56-.74s.47-.22.75-.22.52.07.74.22c.22.15.4.39.56.74l4.7,10.37c.13.27.18.52.14.75s-.14.4-.3.52c-.17.12-.38.19-.66.19-.33,0-.59-.08-.77-.24s-.35-.4-.49-.74l-1.15-2.68.96.62h-7.48l.96-.62-1.13,2.68c-.15.34-.31.59-.48.74-.17.15-.4.23-.71.23ZM433.36,10.66l-2.48,5.9-.46-.57h5.92l-.44.57-2.5-5.9h-.04Z"/>
      <path class="cls-6" d="M376.6,35.61c-.39,0-.69-.1-.9-.31-.21-.21-.31-.5-.31-.9v-10.09c0-.39.1-.69.31-.9.21-.21.51-.31.9-.31h3.44c2.09,0,3.71.54,4.85,1.61,1.14,1.08,1.71,2.62,1.71,4.63,0,1-.14,1.89-.43,2.67-.29.77-.71,1.43-1.28,1.96-.56.53-1.25.94-2.06,1.21-.81.28-1.74.42-2.79.42h-3.44ZM377.66,33.73h2.23c.73,0,1.37-.09,1.91-.27.54-.18.99-.46,1.35-.82.36-.36.63-.82.81-1.37.18-.55.27-1.19.27-1.92,0-1.47-.36-2.56-1.08-3.28-.72-.72-1.8-1.08-3.24-1.08h-2.23v8.74Z"/>
      <path class="cls-6" d="M390.11,35.61c-.39,0-.69-.1-.9-.31-.21-.21-.31-.5-.31-.9v-10.09c0-.39.1-.69.31-.9.21-.21.51-.31.9-.31h6.33c.3,0,.52.08.68.23.16.15.24.37.24.66s-.08.52-.24.68c-.16.16-.39.24-.68.24h-5.35v3.44h4.96c.31,0,.54.08.69.23s.23.38.23.67-.08.52-.23.67-.38.23-.69.23h-4.96v3.63h5.35c.3,0,.52.08.68.23.16.15.24.38.24.67s-.08.52-.24.67c-.16.15-.39.23-.68.23h-6.33Z"/>
      <path class="cls-6" d="M403.62,35.78c-.52,0-1.04-.04-1.56-.12-.52-.08-1.01-.19-1.47-.35-.46-.16-.88-.36-1.24-.59-.21-.14-.36-.31-.44-.51-.08-.2-.11-.4-.08-.59.03-.19.11-.37.23-.51.12-.15.28-.24.47-.27.19-.04.4.02.62.16.52.31,1.07.53,1.65.67.58.14,1.19.21,1.83.21.93,0,1.61-.16,2.04-.47.42-.31.64-.72.64-1.21,0-.41-.15-.74-.45-.98-.3-.24-.82-.43-1.55-.59l-1.95-.41c-1.12-.24-1.96-.64-2.51-1.2s-.82-1.3-.82-2.22c0-.58.12-1.11.35-1.58.24-.47.57-.88,1-1.22.43-.34.95-.61,1.54-.79.6-.18,1.26-.27,1.98-.27s1.38.09,2.02.27c.64.18,1.21.44,1.72.78.19.13.32.29.38.48s.08.38.04.56-.12.34-.25.47c-.13.13-.29.21-.49.23-.19.02-.42-.04-.66-.18-.44-.25-.88-.43-1.33-.53-.45-.11-.93-.16-1.45-.16s-1.01.08-1.4.23-.69.37-.9.65c-.21.28-.31.61-.31.98,0,.43.14.77.43,1.02.28.25.77.45,1.45.59l1.93.41c1.17.25,2.04.64,2.62,1.17.57.53.86,1.24.86,2.13,0,.57-.11,1.08-.35,1.54-.23.46-.56.86-.99,1.19-.43.33-.95.59-1.55.76-.6.18-1.28.27-2.04.27Z"/>
      <path class="cls-6" d="M422.05,35.78c-1.38,0-2.55-.26-3.5-.78-.95-.52-1.68-1.26-2.17-2.22-.5-.96-.74-2.09-.74-3.4,0-.99.15-1.89.43-2.68s.71-1.47,1.26-2.03,1.22-.99,2.01-1.29c.79-.3,1.69-.45,2.7-.45.66,0,1.33.08,1.99.24.67.16,1.3.43,1.89.81.2.13.33.29.4.48s.07.38.03.58c-.05.2-.14.36-.27.51-.13.14-.29.23-.49.27-.2.04-.41-.01-.65-.14-.45-.26-.9-.45-1.37-.57-.46-.12-.98-.18-1.54-.18-.88,0-1.61.17-2.22.52s-1.05.85-1.36,1.52c-.3.66-.45,1.47-.45,2.43,0,1.45.35,2.56,1.05,3.32.7.76,1.73,1.13,3.1,1.13.47,0,.95-.05,1.44-.14.48-.09.96-.22,1.42-.39l-.44,1.01v-3.78h-1.95c-.3,0-.52-.08-.68-.23s-.24-.36-.24-.62.08-.48.24-.62c.16-.14.39-.21.68-.21h2.93c.3,0,.52.08.68.24.16.16.24.39.24.68v4.31c0,.26-.05.48-.15.66s-.26.31-.49.39c-.52.19-1.12.35-1.79.47s-1.34.19-1.99.19Z"/>
      <path class="cls-6" d="M430.16,35.75c-.34,0-.61-.1-.79-.28-.18-.19-.27-.46-.27-.82v-10.55c0-.37.09-.65.27-.84.18-.2.42-.29.72-.29.27,0,.48.05.61.15.14.1.3.27.49.51l6.79,8.81h-.46v-12.21c0-.34.09-.61.27-.8s.45-.28.79-.28.6.1.78.28.27.45.27.8v14.47c0,.33-.08.59-.25.78-.17.19-.39.28-.67.28s-.49-.05-.65-.16c-.16-.11-.33-.28-.52-.51l-6.77-8.81h.44v8.39c0,.35-.09.63-.27.82-.18.19-.44.28-.78.28Z"/>
      <path class="cls-5" d="M412.07,10.81c-.41,0-.74-.1-.97-.31-.23-.21-.35-.49-.35-.86s.11-.67.35-.87c.23-.2.55-.3.97-.3s.75.1.98.3c.22.2.34.49.34.87s-.11.65-.34.86c-.23.21-.55.31-.98.31Z"/>
    </g>
  </g>
</svg>