<svg width="190" height="190" viewBox="0 0 190 190" fill="none" xmlns="http://www.w3.org/2000/svg">
<path d="M123.868 39H65.9075C61.6886 39 57.6424 40.676 54.6592 43.6592C51.676 46.6424 50 50.6886 50 54.9075V136.081C50 144.866 57.1225 151.989 65.9075 151.989H123.876C128.095 151.989 132.141 150.313 135.125 147.33C138.108 144.346 139.784 140.3 139.784 136.081V54.8988C139.777 50.6812 138.097 46.6387 135.113 43.6581C132.129 40.6775 128.085 39.0023 123.868 39ZM65.9075 47.75H123.876C127.822 47.75 131.034 50.9612 131.034 54.9075V119.938H58.75V54.8988C58.75 50.9613 61.9613 47.75 65.9075 47.75ZM123.868 143.23H65.9075C64.0099 143.228 62.1907 142.473 60.8489 141.131C59.5072 139.789 58.7523 137.97 58.75 136.072V128.679H131.025V136.072C131.023 137.97 130.268 139.789 128.926 141.131C127.584 142.473 125.765 143.228 123.868 143.23Z" fill="#535455"/>
<path d="M68.1212 66.8688H100.146C101.307 66.8688 102.419 66.4078 103.24 65.5874C104.06 64.7669 104.521 63.6541 104.521 62.4938C104.521 61.3335 104.06 60.2207 103.24 59.4002C102.419 58.5797 101.307 58.1188 100.146 58.1188H68.1212C66.9609 58.1188 65.8481 58.5797 65.0276 59.4002C64.2072 60.2207 63.7462 61.3335 63.7462 62.4938C63.7462 63.6541 64.2072 64.7669 65.0276 65.5874C65.8481 66.4078 66.9609 66.8688 68.1212 66.8688ZM64.7437 90.205C64.7437 91.3653 65.2047 92.4781 66.0251 93.2986C66.8456 94.1191 67.9584 94.58 69.1187 94.58H108.45C109.61 94.58 110.723 94.1191 111.544 93.2986C112.364 92.4781 112.825 91.3653 112.825 90.205C112.825 89.0447 112.364 87.9319 111.544 87.1114C110.723 86.291 109.61 85.83 108.45 85.83H69.1187C67.9584 85.83 66.8456 86.291 66.0251 87.1114C65.2047 87.9319 64.7437 89.0447 64.7437 90.205ZM108.45 102.236H69.1187C67.9584 102.236 66.8456 102.697 66.0251 103.518C65.2047 104.338 64.7437 105.451 64.7437 106.611C64.7437 107.772 65.2047 108.884 66.0251 109.705C66.8456 110.525 67.9584 110.986 69.1187 110.986H108.45C109.61 110.986 110.723 110.525 111.544 109.705C112.364 108.884 112.825 107.772 112.825 106.611C112.825 105.451 112.364 104.338 111.544 103.518C110.723 102.697 109.61 102.236 108.45 102.236Z" fill="#535455"/>
</svg>
