<svg width="140" height="140" viewBox="0 0 140 140" fill="none" xmlns="http://www.w3.org/2000/svg">
<path d="M98.9801 13.51H41.0201C36.8011 13.51 32.755 15.186 29.7717 18.1692C26.7885 21.1524 25.1125 25.1986 25.1125 29.4175V110.591C25.1125 119.376 32.2351 126.499 41.0201 126.499H98.9888C103.208 126.499 107.254 124.823 110.237 121.84C113.22 118.856 114.896 114.81 114.896 110.591V29.4088C114.889 25.1913 113.21 21.1487 110.226 18.1681C107.242 15.1875 103.198 13.5123 98.9801 13.51ZM41.0201 22.26H98.9888C102.935 22.26 106.146 25.4713 106.146 29.4175V94.4475H33.8625V29.4088C33.8625 25.4713 37.0738 22.26 41.0201 22.26ZM98.9801 117.74H41.0201C39.1225 117.738 37.3033 116.983 35.9615 115.641C34.6197 114.299 33.8649 112.48 33.8625 110.583V103.189H106.138V110.583C106.135 112.48 105.38 114.299 104.039 115.641C102.697 116.983 100.878 117.738 98.9801 117.74Z" fill="#535455"/>
<path d="M43.2338 41.3788H75.2588C76.4191 41.3788 77.5319 40.9178 78.3524 40.0974C79.1728 39.2769 79.6338 38.1641 79.6338 37.0038C79.6338 35.8435 79.1728 34.7307 78.3524 33.9102C77.5319 33.0897 76.4191 32.6288 75.2588 32.6288H43.2338C42.0734 32.6288 40.9606 33.0897 40.1402 33.9102C39.3197 34.7307 38.8588 35.8435 38.8588 37.0038C38.8588 38.1641 39.3197 39.2769 40.1402 40.0974C40.9606 40.9178 42.0734 41.3788 43.2338 41.3788ZM39.8563 64.715C39.8563 65.8754 40.3172 66.9882 41.1377 67.8086C41.9581 68.6291 43.0709 69.09 44.2313 69.09H83.5625C84.7228 69.09 85.8356 68.6291 86.6561 67.8086C87.4766 66.9882 87.9375 65.8754 87.9375 64.715C87.9375 63.5547 87.4766 62.4419 86.6561 61.6214C85.8356 60.801 84.7228 60.34 83.5625 60.34H44.2313C43.0709 60.34 41.9581 60.801 41.1377 61.6214C40.3172 62.4419 39.8563 63.5547 39.8563 64.715ZM83.5625 76.7463H44.2313C43.0709 76.7463 41.9581 77.2072 41.1377 78.0277C40.3172 78.8482 39.8563 79.961 39.8563 81.1213C39.8563 82.2816 40.3172 83.3944 41.1377 84.2149C41.9581 85.0353 43.0709 85.4963 44.2313 85.4963H83.5625C84.7228 85.4963 85.8356 85.0353 86.6561 84.2149C87.4766 83.3944 87.9375 82.2816 87.9375 81.1213C87.9375 79.961 87.4766 78.8482 86.6561 78.0277C85.8356 77.2072 84.7228 76.7463 83.5625 76.7463Z" fill="#535455"/>
</svg>
