<svg width="190" height="190" viewBox="0 0 190 190" fill="none" xmlns="http://www.w3.org/2000/svg">
<path d="M97.1056 31.9733L146.262 53.8083C148.268 54.6994 149.972 56.1534 151.168 57.9939C152.364 59.8344 153 61.9824 153 64.1774V131.823C153 134.018 152.364 136.166 151.168 138.006C149.972 139.847 148.268 141.301 146.262 142.192L97.1056 164.023C95.6556 164.667 94.0866 165 92.5 165C90.9134 165 89.3444 164.667 87.8944 164.023L38.7382 142.192C36.7324 141.301 35.0282 139.847 33.8322 138.006C32.6362 136.166 31.9997 134.018 32 131.823V64.1774C31.9997 61.9824 32.6362 59.8344 33.8322 57.9939C35.0282 56.1534 36.7324 54.6994 38.7382 53.8083L87.8944 31.9771C89.3444 31.3329 90.9134 31 92.5 31C94.0866 31 95.6556 31.3329 97.1056 31.9771V31.9733ZM43.3438 74.8566V131.823L87.7734 151.555V93.897L43.3438 74.8566ZM141.656 75.265L99.1172 93.4923V150.715L141.656 131.823V75.265ZM92.5 42.3462L45.2495 63.3303L92.9802 83.7888L140.219 63.5383L92.5 42.3462Z" fill="#535455"/>
</svg>
