<svg width="190" height="190" viewBox="0 0 190 190" fill="none" xmlns="http://www.w3.org/2000/svg">
<path d="M99.8212 25.8875L151.28 48.7429C153.379 49.6757 155.163 51.1976 156.415 53.1241C157.667 55.0507 158.334 57.299 158.333 59.5966V130.403C158.334 132.701 157.667 134.949 156.415 136.876C155.163 138.802 153.379 140.324 151.28 141.257L99.8212 164.108C98.3033 164.783 96.6609 165.131 95 165.131C93.339 165.131 91.6966 164.783 90.1787 164.108L38.7204 141.257C36.6207 140.324 34.8366 138.802 33.5846 136.876C32.3326 134.949 31.6663 132.701 31.6666 130.403V59.5966C31.6663 57.299 32.3326 55.0507 33.5846 53.1241C34.8366 51.1976 36.6207 49.6757 38.7204 48.7429L90.1787 25.8914C91.6966 25.2171 93.339 24.8687 95 24.8687C96.6609 24.8687 98.3033 25.2171 99.8212 25.8914V25.8875ZM43.5416 70.7749V130.403L90.052 151.058V90.7052L43.5416 70.7749ZM146.458 71.2024L101.927 90.2816V150.179L146.458 130.403V71.2024ZM95 36.7452L45.5366 58.7099L95.5027 80.1245L144.954 58.9277L95 36.7452Z" fill="#535455"/>
</svg>
