<svg width="190" height="190" viewBox="0 0 190 190" fill="none" xmlns="http://www.w3.org/2000/svg">
<path d="M159.66 68.3077V53.456C159.66 41.0738 149.617 31 137.273 31H48.4556C36.1108 31 26.0677 41.0738 26.0677 53.456V69.3757C25.9774 69.9625 25.9774 70.5598 26.0677 71.1466V142.544C26.0677 154.926 36.1108 165 48.4556 165H137.272C149.617 165 159.66 154.926 159.66 142.544V72.2146C159.88 71.6047 160 70.947 160 70.2612C160 69.5753 159.88 68.9177 159.66 68.3077ZM148.191 142.544C148.191 148.583 143.293 153.496 137.273 153.496H48.4556C42.4352 153.496 37.537 148.583 37.537 142.544V76.0133H148.191V142.544H148.191ZM148.191 64.509H37.537V53.456C37.537 47.4172 42.4352 42.5043 48.4556 42.5043H137.272C143.293 42.5043 148.191 47.4172 148.191 53.456V64.509H148.191Z" fill="#535455"/>
<path d="M45 54C45 55.3261 45.5663 56.5979 46.5743 57.5355C47.5823 58.4732 48.9494 59 50.3749 59C51.8005 59 53.1676 58.4732 54.1756 57.5355C55.1836 56.5979 55.7499 55.3261 55.7499 54C55.7499 52.6739 55.1836 51.4021 54.1756 50.4645C53.1676 49.5268 51.8005 49 50.3749 49C48.9494 49 47.5823 49.5268 46.5743 50.4645C45.5663 51.4021 45 52.6739 45 54ZM61.125 54C61.125 55.3261 61.6913 56.5979 62.6993 57.5355C63.7073 58.4732 65.0745 59 66.5 59C67.9255 59 69.2927 58.4732 70.3007 57.5355C71.3087 56.5979 71.8749 55.3261 71.8749 54C71.8749 52.6739 71.3087 51.4021 70.3007 50.4645C69.2927 49.5268 67.9255 49 66.5 49C65.0745 49 63.7073 49.5268 62.6993 50.4645C61.6913 51.4021 61.125 52.6739 61.125 54ZM77.2501 54C77.2501 55.3261 77.8164 56.5979 78.8244 57.5355C79.8324 58.4732 81.1995 59 82.625 59C84.0506 59 85.4177 58.4732 86.4257 57.5355C87.4337 56.5979 88 55.3261 88 54C88 52.6739 87.4337 51.4021 86.4257 50.4645C85.4177 49.5268 84.0506 49 82.625 49C81.1995 49 79.8324 49.5268 78.8244 50.4645C77.8164 51.4021 77.2501 52.6739 77.2501 54Z" fill="#535455"/>
</svg>
