<svg width="190" height="190" viewBox="0 0 190 190" fill="none" xmlns="http://www.w3.org/2000/svg">
<path d="M159.612 66.0198V51.6477C159.612 39.6653 149.863 29.9169 137.881 29.9169H51.6698C39.6872 29.9169 29.9387 39.6653 29.9387 51.6477V67.0533C29.8511 67.6212 29.8511 68.1992 29.9387 68.767V137.859C29.9387 149.841 39.6872 159.59 51.6698 159.59H137.881C149.863 159.59 159.612 149.841 159.612 137.859V69.8005C159.825 69.2103 159.941 68.5739 159.941 67.9102C159.941 67.2465 159.825 66.6101 159.612 66.0198ZM148.479 137.859C148.479 143.703 143.725 148.457 137.881 148.457H51.6698C45.826 148.457 41.0716 143.703 41.0716 137.859V73.4766H148.479V137.859H148.479ZM148.479 62.3438H41.0716V51.6477C41.0716 45.804 45.826 41.0497 51.6698 41.0497H137.881C143.724 41.0497 148.479 45.804 148.479 51.6477V62.3438H148.479Z" fill="#535455"/>
<path d="M49.0461 52.1017C49.0461 53.4668 49.5884 54.7759 50.5536 55.7411C51.5189 56.7063 52.828 57.2486 54.193 57.2486C55.5581 57.2486 56.8672 56.7063 57.8324 55.7411C58.7977 54.7759 59.3399 53.4668 59.3399 52.1017C59.3399 50.7367 58.7977 49.4275 57.8324 48.4623C56.8672 47.4971 55.5581 46.9548 54.193 46.9548C52.828 46.9548 51.5189 47.4971 50.5536 48.4623C49.5884 49.4275 49.0461 50.7367 49.0461 52.1017ZM64.487 52.1017C64.487 53.4668 65.0292 54.7759 65.9945 55.7411C66.9597 56.7063 68.2688 57.2486 69.6339 57.2486C70.9989 57.2486 72.308 56.7063 73.2733 55.7411C74.2385 54.7759 74.7807 53.4668 74.7807 52.1017C74.7807 50.7367 74.2385 49.4275 73.2733 48.4623C72.308 47.4971 70.9989 46.9548 69.6339 46.9548C68.2688 46.9548 66.9597 47.4971 65.9945 48.4623C65.0292 49.4275 64.487 50.7367 64.487 52.1017ZM79.9278 52.1017C79.9278 53.4668 80.4701 54.7759 81.4353 55.7411C82.4005 56.7063 83.7097 57.2486 85.0747 57.2486C86.4397 57.2486 87.7489 56.7063 88.7141 55.7411C89.6793 54.7759 90.2216 53.4668 90.2216 52.1017C90.2216 50.7367 89.6793 49.4275 88.7141 48.4623C87.7489 47.4971 86.4397 46.9548 85.0747 46.9548C83.7097 46.9548 82.4005 47.4971 81.4353 48.4623C80.4701 49.4275 79.9278 50.7367 79.9278 52.1017Z" fill="#535455"/>
</svg>
