<svg width="200" height="200" viewBox="0 0 200 200" fill="none" xmlns="http://www.w3.org/2000/svg">
<path d="M168.012 69.4946V54.3661C168.012 41.753 157.751 31.4915 145.138 31.4915H54.3893C41.776 31.4915 31.5145 41.753 31.5145 54.3661V70.5825C31.4223 71.1802 31.4223 71.7886 31.5145 72.3864V145.114C31.5145 157.728 41.776 167.989 54.3893 167.989H145.138C157.751 167.989 168.012 157.728 168.012 145.114V73.4743C168.237 72.853 168.359 72.1831 168.359 71.4844C168.359 70.7858 168.237 70.1159 168.012 69.4946ZM156.294 145.114C156.294 151.266 151.289 156.27 145.138 156.27H54.3893C48.2379 156.27 43.2332 151.266 43.2332 145.114V77.3438H156.293V145.114H156.294ZM156.294 65.6251H43.2332V54.3661C43.2332 48.2147 48.2379 43.2102 54.3893 43.2102H145.138C151.289 43.2102 156.293 48.2147 156.293 54.3661V65.6251H156.294Z" fill="#535455"/>
<path d="M51.6274 54.8439C51.6274 56.2808 52.1982 57.6588 53.2143 58.6749C54.2303 59.6909 55.6083 60.2617 57.0452 60.2617C58.4821 60.2617 59.8601 59.6909 60.8762 58.6749C61.8922 57.6588 62.463 56.2808 62.463 54.8439C62.463 53.407 61.8922 52.029 60.8762 51.013C59.8601 49.9969 58.4821 49.4261 57.0452 49.4261C55.6083 49.4261 54.2303 49.9969 53.2143 51.013C52.1982 52.029 51.6274 53.407 51.6274 54.8439ZM67.881 54.8439C67.881 56.2808 68.4518 57.6588 69.4678 58.6749C70.4838 59.6909 71.8618 60.2617 73.2987 60.2617C74.7356 60.2617 76.1136 59.6909 77.1297 58.6749C78.1457 57.6588 78.7165 56.2808 78.7165 54.8439C78.7165 53.407 78.1457 52.029 77.1297 51.013C76.1136 49.9969 74.7356 49.4261 73.2987 49.4261C71.8618 49.4261 70.4838 49.9969 69.4678 51.013C68.4518 52.029 67.881 53.407 67.881 54.8439ZM84.1345 54.8439C84.1345 56.2808 84.7053 57.6588 85.7213 58.6749C86.7373 59.6909 88.1154 60.2617 89.5522 60.2617C90.9891 60.2617 92.3672 59.6909 93.3832 58.6749C94.3992 57.6588 94.97 56.2808 94.97 54.8439C94.97 53.407 94.3992 52.029 93.3832 51.013C92.3672 49.9969 90.9891 49.4261 89.5522 49.4261C88.1154 49.4261 86.7373 49.9969 85.7213 51.013C84.7053 52.029 84.1345 53.407 84.1345 54.8439Z" fill="#535455"/>
</svg>
